<?xml version="1.0" encoding="utf-8"?>
 <svg xmlns="https://www.w3.org/2000/svg" viewBox="0 0 1020 1020">
    <g id="contact">
<path d="M460.5 38.2c-.6-.1-1.2-.1-1.7-.1-.6 0-1.1.1-1.6.1-1.7.2-3.2.8-4.3 1.5-1.1.8-2 1.7-2.5 2.7-.6 1-1 2-1.1 3.1-.2 1.1-.2 2-.1 2.8l2.8 20.3-13 1.8-5.4-39.5 12.5-1.7.8 5.7h.2c.7-2.2 1.9-4 3.6-5.5 1.7-1.5 3.7-2.5 6.2-2.8.5-.1 1-.1 1.6-.1.5 0 .9 0 1.3.1l.7 11.6zM508.9 44.4c.2 3.3-.3 6.2-1.3 8.9s-2.5 5-4.5 7c-1.9 1.9-4.2 3.5-6.8 4.6-2.6 1.1-5.4 1.8-8.5 1.9-3 .1-5.9-.2-8.6-1.1-2.7-.9-5.2-2.2-7.3-3.9s-3.8-3.9-5.1-6.5c-1.3-2.6-2-5.5-2.2-8.8-.2-3.3.3-6.2 1.3-8.9s2.5-5 4.4-6.9c1.9-1.9 4.2-3.4 6.8-4.5 2.6-1.1 5.5-1.7 8.4-1.9 3-.1 5.9.2 8.6 1 2.7.8 5.1 2.1 7.2 3.8 2.1 1.7 3.8 3.8 5.1 6.4 1.6 2.7 2.3 5.6 2.5 8.9zm-12.6.6c-.1-1.3-.3-2.5-.8-3.7-.5-1.2-1.2-2.3-2-3.1-.8-.9-1.9-1.6-3.1-2.1-1.2-.5-2.6-.8-4.1-.7-1.5.1-2.9.4-4 1.1-1.1.6-2.1 1.5-2.8 2.4-.7 1-1.3 2.1-1.6 3.3-.3 1.2-.5 2.5-.4 3.8.1 1.3.3 2.5.8 3.7.5 1.2 1.1 2.3 2 3.2.8.9 1.9 1.7 3.1 2.2 1.2.5 2.6.8 4.1.7 1.5-.1 2.9-.4 4-1.1 1.1-.6 2.1-1.5 2.8-2.5.8-1 1.3-2.2 1.6-3.4.3-1.3.4-2.5.4-3.8zM567.2 68.2l1.8-21.7c.1-1.1.1-2.2 0-3.3-.1-1.1-.3-2-.7-2.7-.4-.8-.9-1.4-1.6-1.9-.7-.5-1.6-.8-2.8-.9-1.1-.1-2.1.1-3 .5-.9.4-1.6 1-2.2 1.7-.6.8-1.1 1.6-1.5 2.6-.4 1-.6 2.1-.7 3.2L555 67.2l-13.1-1.1 1.9-22.7c.2-2.3-.1-4.1-.9-5.5-.8-1.4-2.2-2.2-4.1-2.4-2.1-.2-3.8.5-5 2.1-1.3 1.6-2 3.5-2.2 5.9L529.7 65l-13.2-1.1 3.4-39.7 12.7 1.1-.5 5.5h.2c.6-.8 1.2-1.6 2-2.3.8-.7 1.7-1.4 2.8-1.9 1.1-.5 2.2-.9 3.5-1.2 1.3-.3 2.7-.3 4.2-.2 2.9.2 5.3 1 7.2 2.4 1.9 1.3 3.3 3.1 4.2 5.4 1.5-2 3.3-3.5 5.5-4.5s4.8-1.4 7.7-1.2c2.7.2 4.9.9 6.7 2.1 1.8 1.1 3.1 2.5 4.1 4.2 1 1.7 1.6 3.5 2 5.5.3 2 .4 3.9.3 5.8l-2.1 24.6-13.2-1.3zM595.2 37.8c2.8-1.7 5.8-2.7 9.1-3.2 3.3-.4 6.5-.3 9.7.4 3.3.7 6 1.7 8.1 3 2.1 1.3 3.7 3 4.7 5s1.6 4.4 1.7 7.1c.1 2.7-.3 5.9-1 9.4l-4.3 19.6-11.7-2.6.9-4.1-.2-.1c-1.3 1.4-3.1 2.3-5.3 2.8-2.2.4-4.5.4-6.8-.1-1.6-.3-3.1-.9-4.7-1.7-1.6-.8-3-1.8-4.1-3-1.2-1.2-2-2.7-2.6-4.5-.5-1.8-.6-3.8-.1-6.1.6-2.8 1.9-4.9 3.8-6.3 1.9-1.4 4.2-2.3 6.8-2.7 2.6-.4 5.5-.4 8.5-.1 3 .3 6 .8 8.8 1.4l.1-.6c.4-1.9.1-3.5-1.1-4.7-1.2-1.2-2.7-2-4.7-2.5-1.8-.4-3.7-.4-5.5 0-1.9.4-3.5 1-5 1.9l-5.1-8.3zm19.9 21.8l-1.6-.4c-1.4-.3-2.8-.6-4.3-.7-1.5-.2-2.8-.2-4-.1-1.2.1-2.2.5-3.1 1-.9.5-1.5 1.4-1.7 2.5-.2.7-.1 1.4.1 2 .2.6.6 1.1 1 1.5.5.4 1 .8 1.7 1.1.6.3 1.3.5 1.9.6 2.6.6 4.8.3 6.5-.8 1.7-1.1 2.8-2.9 3.3-5.4l.2-1.3zM631.6 81.8L643 43.6l12.6 3.8-11.4 38.2-12.6-3.8zm28.6-46.4c-.3 1-.8 1.8-1.4 2.6s-1.4 1.3-2.2 1.7c-.8.4-1.7.7-2.7.8-1 .1-2 0-3-.3-2-.6-3.6-1.8-4.5-3.6-1-1.8-1.2-3.6-.6-5.5.3-.9.7-1.8 1.3-2.5.6-.7 1.3-1.3 2.2-1.7s1.8-.7 2.8-.8c1-.1 2 0 3 .3s1.9.8 2.6 1.4c.8.6 1.4 1.3 1.9 2.1s.7 1.7.9 2.6 0 1.9-.3 2.9zM677.6 97.6l7.9-20.3c.4-1 .7-2.1.9-3.1.2-1 .2-2 .1-2.8-.1-.9-.5-1.7-1-2.4-.6-.7-1.4-1.3-2.5-1.7-1.1-.4-2.1-.6-3.1-.5-1 .1-1.9.4-2.7 1-.8.5-1.6 1.2-2.2 2.1-.7.9-1.2 1.8-1.6 2.9L665.6 93l-12.3-4.8L667.8 51l11.9 4.6-2 5.2.1.1c.8-.6 1.6-1.2 2.7-1.7 1-.5 2.1-.8 3.3-1 1.2-.2 2.4-.2 3.7-.1 1.3.1 2.6.4 3.9.9 2.5 1 4.4 2.2 5.8 3.8 1.4 1.6 2.3 3.3 2.9 5.1.5 1.8.7 3.8.4 5.8-.2 2-.7 4-1.4 5.8l-9 23-12.5-4.9zM714.3 106.6c-1 2-2.5 3.4-4.6 4-2.1.7-4.1.5-6.1-.4-1-.5-1.9-1.1-2.6-1.9-.7-.8-1.3-1.7-1.6-2.6-.4-1-.5-1.9-.5-3 0-1 .3-2 .8-3.1.5-1 1.1-1.8 1.9-2.5.8-.7 1.7-1.2 2.7-1.5 1-.3 2-.5 3.1-.4 1.1 0 2.1.3 3.1.8 2 1 3.3 2.5 4.1 4.5.8 2 .7 4.1-.3 6.1zM735.4 86.3c3.2-.8 6.4-.8 9.6-.2 3.3.6 6.3 1.7 9.1 3.4 2.9 1.7 5.2 3.5 6.7 5.4 1.6 1.9 2.6 3.9 2.9 6.2.4 2.2.2 4.6-.6 7.3-.8 2.6-2 5.5-3.9 8.6l-10.1 17.4-10.4-6 2.1-3.7-.2-.1c-1.7.9-3.7 1.3-5.9 1-2.2-.3-4.4-1-6.5-2.2-1.4-.8-2.7-1.8-4-3.1-1.3-1.2-2.3-2.6-3-4.2-.7-1.5-1.1-3.2-1.1-5.1 0-1.8.6-3.8 1.8-5.8 1.5-2.5 3.3-4.1 5.5-4.8 2.2-.7 4.7-.9 7.3-.5 2.6.4 5.3 1.3 8.1 2.5 2.8 1.3 5.4 2.6 7.9 4.1l.3-.6c1-1.7 1.1-3.3.4-4.8-.7-1.5-2-2.8-3.7-3.8-1.6-.9-3.4-1.5-5.3-1.7-1.9-.2-3.7-.1-5.3.3l-1.7-9.6zm12.2 26.9l-1.5-.8c-1.2-.7-2.5-1.4-3.9-2-1.3-.6-2.6-1.1-3.8-1.3-1.2-.3-2.3-.3-3.3 0-1 .2-1.8.9-2.4 1.9-.4.6-.6 1.3-.5 1.9 0 .6.2 1.2.5 1.8.3.5.7 1.1 1.2 1.5.5.5 1.1.9 1.6 1.2 2.3 1.3 4.4 1.7 6.4 1.2 2-.6 3.6-1.9 4.8-4.1l.9-1.3zM776.3 153.4l-11.5-8.3 10.7-41.5 11.7 8.5-8.4 25.9.2.1 22-16 11.4 8.2-36.1 23.1zM814.2 139c3.2-.1 6.4.4 9.5 1.7 3.1 1.2 5.8 2.9 8.3 5.1 2.5 2.2 4.4 4.4 5.6 6.6 1.2 2.2 1.7 4.4 1.7 6.6-.1 2.3-.7 4.6-2 7-1.3 2.4-3.1 5-5.5 7.7l-13.3 15.1-9-8 2.8-3.2-.2-.2c-1.9.6-3.9.5-6-.2s-4.1-1.8-5.9-3.4c-1.2-1.1-2.3-2.3-3.3-3.8s-1.7-3-2.1-4.7c-.4-1.7-.4-3.4-.1-5.2.4-1.8 1.4-3.6 2.9-5.3 1.9-2.2 4-3.4 6.4-3.6 2.3-.3 4.8.1 7.3 1s5 2.3 7.5 4.1c2.5 1.8 4.8 3.6 7 5.5l.4-.5c1.3-1.5 1.8-3 1.3-4.6-.4-1.6-1.4-3.1-2.9-4.4-1.4-1.2-3-2.1-4.8-2.7-1.8-.6-3.6-.8-5.2-.8l-.4-9.8zm6.7 28.7l-1.3-1.1c-1.1-1-2.2-1.9-3.4-2.7-1.2-.9-2.3-1.6-3.4-2-1.1-.5-2.2-.7-3.2-.7s-1.9.5-2.7 1.4c-.5.6-.8 1.2-.9 1.8-.1.6 0 1.2.1 1.8.2.6.5 1.2.9 1.7.4.6.9 1.1 1.4 1.5 2 1.8 4 2.6 6 2.4 2-.2 3.9-1.2 5.5-3.1l1-1zM824.6 195.2L868 153l9.3 9.6-43.4 42.2-9.3-9.6zM840.5 212l45.6-39.9 8.8 10.1-45.6 39.8-8.8-10zM894.8 249c-.4.3-.9.6-1.3 1-.4.3-.9.6-1.3.8L875 227.7c-.8.8-1.4 1.6-1.8 2.6-.4 1-.6 2-.6 3.1s.2 2.2.5 3.3c.4 1.1.9 2.1 1.6 3.1 1.2 1.7 2.6 2.8 4.1 3.5 1.5.7 3 1 4.5 1l.8 10.8c-3.3.1-6.5-.6-9.5-2.2s-5.7-4-8.2-7.2c-1.8-2.4-3.1-4.9-4-7.6-.8-2.7-1.2-5.4-.9-8.1.2-2.7 1.1-5.3 2.5-7.7 1.4-2.5 3.5-4.7 6.2-6.7 2.6-1.9 5.3-3.3 8.1-3.9 2.8-.7 5.5-.8 8.1-.4 2.6.4 5.1 1.4 7.5 2.9 2.4 1.5 4.5 3.5 6.3 5.9 1.8 2.4 3 4.8 3.7 7.4.7 2.6.8 5.1.4 7.6s-1.4 5-3 7.4c-1.6 2.3-3.7 4.5-6.5 6.5zm-3.2-12.7c1.7-1.2 2.7-2.8 3.1-4.8.4-1.9-.2-4-1.7-6.1-.8-1-1.6-1.8-2.6-2.5-1-.6-2-1-3-1.3-1-.2-2.1-.3-3.1-.1-1 .2-2 .5-2.8 1.1l10.1 13.7zM939.3 299.3c-2.6 1.5-5.2 2.5-7.7 3s-4.8.5-7 0-4.1-1.4-5.9-2.7c-1.7-1.3-3.2-3-4.3-5-1.1-1.9-1.5-3.6-1.4-5.2.1-1.6.8-2.9 2.1-3.9l-.2-.3c-1.4 0-3-.5-4.8-1.3-1.7-.8-3.2-2.3-4.4-4.4-.9-1.6-1.4-3.1-1.5-4.7-.1-1.6.1-3.1.6-4.5.6-1.5 1.4-2.8 2.6-4.1 1.2-1.3 2.6-2.4 4.3-3.4 1.9-1.1 4-1.9 6.3-2.3 2.2-.4 4.4-.5 6.6-.2 2.1.3 4.1 1.1 6 2.2 1.8 1.1 3.3 2.7 4.5 4.7 1 1.8 1.5 3.4 1.4 5-.1 1.6-.5 2.8-1.4 3.7v.1l2.6-.9 4.3 7.5-12.1 4.1-3.6 1.2c-1.1.4-2 .8-2.7 1.2-.6.4-1.1.8-1.5 1.4-.4.6-.3 1.2.2 2 .8 1.4 2.3 2.2 4.5 2.3 2.2.2 5-.7 8.2-2.5 2.7-1.5 4.8-3.3 6.4-5.4 1.6-2.1 2.6-4.3 3.1-6.7s.4-4.9-.1-7.5c-.5-2.6-1.6-5.2-3.1-7.9-1.6-2.8-3.6-5.1-5.9-6.9-2.3-1.8-4.9-3-7.5-3.7-2.7-.7-5.5-.8-8.5-.3-2.9.5-5.8 1.5-8.6 3.1-3 1.7-5.4 3.7-7.2 6-1.8 2.3-3 4.9-3.7 7.6-.6 2.7-.7 5.6-.2 8.5.5 3 1.6 5.9 3.2 8.8 1.9 3.3 4.1 6 6.7 8 2.5 2 5.4 3.5 8.5 4.5l-2.4 7.2c-4.2-1.2-7.9-3.2-11.2-6.1-3.3-2.9-6.1-6.4-8.5-10.7-2.3-3.9-3.7-7.9-4.3-11.9-.6-4-.5-7.9.5-11.5.9-3.7 2.6-7.1 5-10.2 2.4-3.1 5.5-5.8 9.3-7.9 3.7-2.1 7.5-3.4 11.5-3.8 4-.4 7.8 0 11.5 1 3.7 1.1 7.1 2.9 10.3 5.4 3.2 2.5 5.8 5.6 7.9 9.3 1.9 3.2 3.2 6.7 4 10.2.8 3.6.9 7.1.3 10.4-.6 3.4-1.9 6.6-3.9 9.6-2.2 3.2-5.1 5.8-8.8 7.9zm-13.9-20.6c.7-.4 1.3-.8 1.9-1.3.6-.5 1-1 1.4-1.6.3-.6.5-1.2.5-1.9s-.2-1.4-.7-2.2c-.5-.9-1.2-1.5-2.2-1.9s-2-.6-3.1-.6c-1.2 0-2.3.1-3.6.5s-2.3.8-3.4 1.4c-1.2.7-2.1 1.6-2.8 2.7-.7 1.1-.7 2.4.2 3.9.6 1 1.4 1.7 2.3 2.2 1 .4 2 .6 3.1.6s2.2-.2 3.3-.5c1.3-.3 2.3-.8 3.1-1.3zM933 358.2c-3.6 1.5-7 2.3-10 2.3-3.1.1-5.9-.5-8.4-1.6-2.5-1.2-4.8-2.9-6.8-5.2-2-2.3-3.6-5.1-5-8.4-1.3-3.3-2.2-6.8-2.7-10.6-.4-3.8-.2-7.4.6-10.7l11.2 2.5c-.8 2.4-1.2 4.9-1.1 7.3.1 2.5.6 4.7 1.5 6.8 1.5 3.6 3.5 5.8 6.1 6.7 2.6.9 5.4.7 8.5-.5l2.2-.9-.1-.2c-2-.5-3.8-1.6-5.5-3.1s-3-3.6-4.1-6c-1.2-2.8-1.7-5.5-1.6-8.1.1-2.6.7-5 1.8-7.2s2.6-4.2 4.6-5.9c2-1.7 4.2-3.1 6.8-4.2 2.6-1.1 5.2-1.7 7.8-1.8 2.6-.2 5.2.1 7.6.9 2.4.8 4.6 2 6.5 3.8 2 1.7 3.5 4 4.7 6.7 1 2.3 1.4 4.7 1.3 7.2-.1 2.5-.8 4.8-2.3 6.9l.1.1 4.7-2 4.7 11.5-33.1 13.7zm10.4-17.8c1.2-.5 2.3-1.2 3.3-2.1 1-.9 1.7-1.9 2.2-3.1.5-1.1.8-2.4.9-3.7 0-1.3-.2-2.6-.8-4-.6-1.4-1.3-2.5-2.3-3.4-.9-.9-2-1.5-3.1-1.9-1.1-.4-2.4-.6-3.7-.5-1.3.1-2.6.4-3.9.9-1.2.5-2.3 1.2-3.3 2.1-1 .9-1.7 1.8-2.3 2.9-.6 1.1-.9 2.3-1 3.6-.1 1.3.2 2.6.7 4 .6 1.4 1.3 2.5 2.3 3.4 1 .9 2 1.6 3.2 2 1.2.4 2.4.6 3.7.6 1.5 0 2.8-.3 4.1-.8zM945.7 416.9l21.1-5.4c1.1-.3 2.1-.6 3.1-1s1.8-.9 2.4-1.5c.6-.6 1.1-1.3 1.3-2.1.3-.8.2-1.8-.1-2.9-.3-1.1-.8-2-1.4-2.7-.7-.7-1.5-1.2-2.4-1.5-.9-.3-1.9-.5-3-.5s-2.2.1-3.2.4l-20.9 5.4-3.3-12.7 22-5.7c2.2-.6 3.9-1.5 4.9-2.7 1.1-1.2 1.4-2.8.9-4.7-.5-2-1.7-3.4-3.6-4.1-1.9-.7-4-.7-6.3-.1l-20.9 5.4-3.3-12.8 38.6-10 3.2 12.3-5.4 1.4v.2c.9.3 1.9.6 2.9 1.1 1 .5 1.9 1.2 2.7 2 .8.8 1.6 1.8 2.3 2.9.7 1.1 1.2 2.4 1.6 3.9.7 2.8.8 5.3.1 7.5-.6 2.2-1.9 4.2-3.7 5.8 2.3.8 4.4 2 6.1 3.7 1.7 1.7 2.9 4 3.7 6.9.7 2.6.8 5 .3 7s-1.4 3.8-2.6 5.3c-1.2 1.5-2.7 2.7-4.5 3.7-1.8 1-3.5 1.7-5.4 2.2l-23.9 6.2-3.3-12.9zM983.6 433.1c2.5 2.1 4.5 4.6 6 7.5 1.5 3 2.4 6.1 2.8 9.3.4 3.3.3 6.2-.2 8.6-.5 2.4-1.6 4.4-3.1 6.1-1.5 1.6-3.6 3-6.1 3.9-2.5 1-5.6 1.7-9.2 2.1l-20 2.4-1.5-11.9 4.2-.5v-.2c-1.8-.8-3.2-2.2-4.4-4.1-1.2-1.9-1.9-4.1-2.2-6.5-.2-1.6-.2-3.3 0-5 .2-1.7.7-3.4 1.5-4.9.8-1.5 1.9-2.8 3.4-3.9s3.4-1.8 5.7-2.1c2.9-.4 5.3.1 7.2 1.5 1.9 1.3 3.5 3.2 4.8 5.5 1.3 2.3 2.2 5 2.9 8 .7 3 1.2 5.9 1.6 8.8l.6-.1c2-.2 3.3-1.1 4.1-2.6.8-1.5 1-3.2.8-5.3-.2-1.9-.8-3.6-1.9-5.2-1-1.6-2.1-3-3.4-4.1l6.4-7.3zm-14 26l-.2-1.7c-.2-1.4-.4-2.9-.7-4.3-.3-1.4-.7-2.7-1.2-3.8-.5-1.1-1.2-2-2-2.6-.8-.7-1.8-.9-3-.8-.7.1-1.4.3-1.8.8-.5.4-.9.9-1.1 1.5-.3.6-.4 1.2-.5 1.9v2c.3 2.6 1.3 4.6 2.9 5.8 1.6 1.2 3.7 1.7 6.2 1.4l1.4-.2zM954.2 482.1l39.8-1.9.6 13.1-39.8 1.9-.6-13.1zm53.2 11.5c-1 0-2-.1-2.9-.5s-1.7-.9-2.4-1.5-1.2-1.4-1.6-2.3c-.4-.9-.7-1.9-.7-2.9-.1-2.1.5-4 1.9-5.5 1.3-1.5 3-2.3 5-2.4 1 0 1.9.1 2.8.4.9.3 1.7.8 2.4 1.5s1.2 1.4 1.7 2.3c.4.9.7 1.9.7 2.9s-.1 2-.4 2.9c-.3 1-.8 1.8-1.4 2.5-.6.7-1.3 1.3-2.2 1.7-.9.7-1.9.9-2.9.9zM955.1 504.9l60.5 1-.2 13.4-60.5-1 .2-13.4zM960.9 543.4c-2.2-.1-4.1-1-5.5-2.7-1.4-1.7-2-3.6-1.9-5.8.1-1.1.3-2.2.8-3.1.5-1 1-1.8 1.8-2.5.7-.7 1.6-1.2 2.5-1.6 1-.4 2-.5 3.1-.5 1.1.1 2.1.3 3 .8.9.5 1.7 1.1 2.4 1.9.7.8 1.2 1.7 1.6 2.7.4 1 .5 2.1.5 3.2-.1 2.2-1 4-2.6 5.5-1.5 1.5-3.5 2.2-5.7 2.1zM976.7 581.8c1-.6 1.9-1.5 2.7-2.7.7-1.2 1.2-2.5 1.4-3.8.2-1.4.1-2.7-.4-3.8-.4-1.2-1-2.2-1.9-3.1-.8-.9-1.8-1.7-3-2.3-1.2-.6-2.4-1-3.8-1.2-1.4-.2-2.7-.1-4 .1-1.3.3-2.4.8-3.5 1.5-1 .7-1.9 1.6-2.6 2.7-.7 1.1-1.1 2.3-1.3 3.8-.2 1.3-.1 2.7.3 4 .3 1.4.9 2.5 1.8 3.4l-9.7 6.1c-1.4-1.8-2.4-4.1-2.9-6.8-.6-2.7-.7-5.5-.3-8.4.4-3.1 1.2-6 2.5-8.6s3-4.8 5.1-6.5c2.1-1.8 4.5-3.1 7.2-3.9 2.7-.8 5.8-1 9-.6s6.1 1.3 8.5 2.8c2.5 1.5 4.5 3.3 6 5.6 1.6 2.2 2.7 4.8 3.3 7.6.6 2.8.8 5.8.4 8.9-.2 1.4-.5 2.8-.9 4.2-.4 1.4-1 2.7-1.6 3.9-.6 1.2-1.3 2.4-2.1 3.4s-1.6 1.9-2.5 2.5l-7.7-8.8zM958.5 635.5c-3.2-.7-5.9-2-8.2-3.7-2.3-1.7-4.1-3.8-5.5-6.2-1.3-2.4-2.2-5-2.6-7.8-.4-2.8-.3-5.7.4-8.7.7-2.9 1.8-5.6 3.4-8 1.6-2.4 3.5-4.4 5.7-5.9s4.8-2.6 7.6-3.1c2.8-.6 5.8-.5 9 .3s5.9 2 8.2 3.7c2.3 1.7 4.1 3.8 5.4 6.1 1.3 2.4 2.2 5 2.5 7.8.3 2.8.2 5.7-.5 8.6-.7 3-1.8 5.6-3.3 8-1.5 2.4-3.4 4.4-5.6 5.9-2.2 1.6-4.7 2.6-7.6 3.2-2.7.6-5.7.5-8.9-.2zm2.8-12.4c1.2.3 2.5.4 3.8.2 1.3-.1 2.5-.5 3.6-1.1 1.1-.6 2.1-1.4 2.9-2.4.8-1 1.4-2.3 1.8-3.8.3-1.5.4-2.9 0-4.2-.3-1.3-.8-2.4-1.6-3.4-.7-1-1.7-1.8-2.8-2.4-1.1-.7-2.3-1.1-3.5-1.4-1.2-.3-2.5-.4-3.8-.3-1.3.1-2.5.5-3.6 1-1.1.6-2.1 1.3-3 2.4-.8 1-1.4 2.3-1.8 3.8-.3 1.5-.4 2.9-.1 4.2.3 1.3.9 2.4 1.6 3.4.8 1 1.7 1.8 2.8 2.5 1.3.8 2.5 1.2 3.7 1.5zM919.7 685.1l20.4 7.7c1 .4 2.1.7 3.1.9 1 .2 2 .3 2.8.1.9-.1 1.6-.5 2.3-1 .7-.5 1.2-1.3 1.6-2.4.4-1 .5-2 .4-3-.2-.9-.5-1.8-1.1-2.6-.6-.8-1.3-1.5-2.1-2.1-.9-.6-1.8-1.1-2.9-1.5l-20.2-7.6 4.6-12.3 21.3 8c2.1.8 4 1 5.6.7 1.6-.4 2.7-1.5 3.4-3.3.7-1.9.5-3.8-.6-5.4-1.1-1.7-2.8-2.9-5.1-3.8l-20.2-7.6 4.7-12.4 37.3 14.1-4.5 11.9-5.2-2-.1.2c.6.8 1.2 1.6 1.7 2.6s.8 2 1.1 3.2c.2 1.2.3 2.4.2 3.7-.1 1.3-.4 2.7-.9 4.1-1 2.7-2.4 4.8-4.2 6.2-1.8 1.5-3.9 2.3-6.4 2.6 1.5 2 2.4 4.2 2.8 6.6.4 2.4.1 5-1 7.8-1 2.5-2.2 4.5-3.8 5.9-1.6 1.4-3.3 2.3-5.2 2.8-1.9.5-3.8.6-5.8.4-2-.2-3.9-.7-5.6-1.3l-23.1-8.7 4.7-12.5zM773.4 904.2c-2.4-3.2-4.3-6.5-5.8-9.9-1.5-3.4-2.4-6.7-2.6-10-.2-3.3.3-6.4 1.6-9.4s3.5-5.7 6.8-8c3.2-2.4 6.5-3.8 9.7-4.1 3.2-.4 6.4 0 9.5 1.2 3.1 1.1 6 2.9 8.8 5.4 2.8 2.4 5.4 5.3 7.8 8.5 2.4 3.2 4.3 6.5 5.8 9.9 1.5 3.4 2.3 6.7 2.5 9.9.2 3.2-.4 6.3-1.7 9.3-1.3 3-3.6 5.6-6.8 8-3.2 2.4-6.4 3.8-9.6 4.1-3.2.4-6.3 0-9.3-1.1-3-1.1-5.9-2.9-8.7-5.3s-5.6-5.3-8-8.5zm11.1-8.2c1 1.4 2.3 2.9 3.7 4.5 1.4 1.6 2.9 3 4.5 4.1 1.6 1.1 3.2 1.9 4.8 2.2 1.6.4 3.1 0 4.6-1 1.4-1 2.2-2.4 2.4-4.1.2-1.7-.1-3.4-.7-5.3-.6-1.8-1.5-3.7-2.5-5.5-1.1-1.8-2.2-3.5-3.2-4.9-1.1-1.5-2.3-3-3.8-4.6-1.5-1.6-3-3-4.6-4.1-1.6-1.1-3.2-1.8-4.9-2.2-1.6-.3-3.2 0-4.6 1.1-1.4 1-2.2 2.4-2.3 4.1-.1 1.7.1 3.4.7 5.2.6 1.8 1.5 3.7 2.6 5.5 1.1 1.8 2.2 3.5 3.3 5zM726.3 921.3c-1.6-2.8-2.6-5.5-2.9-8.3-.3-2.8 0-5.5.8-8s2.2-4.9 4.1-7.1c1.9-2.2 4.1-4.1 6.7-5.6 2.7-1.6 5.4-2.6 8.2-3.2s5.5-.6 8.2-.1 5.1 1.5 7.4 3.1 4.2 3.7 5.8 6.4c1.7 2.9 2.8 5.8 3.1 8.8.4 3 .5 6.1.3 9.5l-1.4 24.5-14 8.3 2.2-23.8v-.5c-.4.5-.8.9-1.4 1.4-.6.5-1.2.9-1.7 1.2-2.1 1.2-4.4 2.1-6.8 2.5-2.4.4-4.7.3-7-.2-2.3-.6-4.4-1.5-6.4-3-2.1-1.6-3.8-3.5-5.2-5.9zm11.3-7.1c1.3 2.2 3.1 3.6 5.3 4.3s4.5.3 6.8-1.1 3.8-3.2 4.4-5.4c.6-2.3.2-4.6-1.1-6.9-1.2-2.1-3-3.5-5.3-4.2-2.3-.7-4.6-.4-7 1-2.3 1.4-3.7 3.2-4.3 5.4-.6 2.3-.1 4.6 1.2 6.9zM668.4 946.5c-1.3-3.2-1.9-6.2-1.8-9 .2-2.8.9-5.4 2.1-7.7 1.3-2.3 2.9-4.4 5-6.1s4.4-3.2 7-4.2c2.4-1 4.8-1.6 7.2-1.9 2.4-.3 4.7-.2 6.9.2s4.3 1.2 6.2 2.3c1.9 1.1 3.6 2.6 5.1 4.4l-9.9 8.2c-1.3-1.6-2.9-2.7-4.9-3.2-2-.6-4-.4-6.1.5-2.1.9-3.7 2.3-4.7 4.2-1 1.9-1 4.1 0 6.7.6 1.5 1.5 2.7 2.6 3.4 1.1.8 2.2 1.3 3.5 1.5 1.3.2 2.6.2 4-.1 1.4-.3 2.7-.7 4-1.2 1.9-.8 3.9-1.9 6.1-3.3 2.2-1.4 4.1-2.9 5.7-4.3l11.2 30.5-32.1 13.3-4.4-10.7 21.1-8.7-3-8.5c-.7.5-1.5 1-2.5 1.5-.9.5-1.8.9-2.6 1.2-2.6 1.1-5.2 1.8-7.8 2-2.6.3-5 .1-7.3-.6s-4.3-1.9-6.2-3.5c-1.7-2-3.2-4.2-4.4-6.9zM621 958.2c-.9-2.9-1-5.5-.5-8s1.5-4.7 2.9-6.6c1.4-2 3.3-3.7 5.6-5.1 2.3-1.4 4.7-2.5 7.4-3.3 2.7-.8 5.4-1.2 8-1.3 2.7 0 5.1.4 7.4 1.2 2.3.8 4.3 2.1 6 3.9 1.8 1.8 3.1 4.1 3.9 7 .5 1.6.7 3.2.6 4.8-.1 1.6-.4 3-1 4.4-.6 1.4-1.3 2.6-2.3 3.8-.9 1.1-2 2.1-3.2 2.9v.2c2.6.2 5 1 7.2 2.5s3.7 3.8 4.6 6.8c.7 2.5.9 4.9.4 7.1-.4 2.2-1.3 4.3-2.7 6.1-1.4 1.8-3.1 3.4-5.2 4.8-2.1 1.3-4.4 2.4-6.9 3.1-2.5.7-5 1.1-7.5 1.2-2.5 0-4.8-.3-6.9-1.1-2.1-.8-4-1.9-5.6-3.6-1.6-1.6-2.8-3.7-3.5-6.2-.9-3-.9-5.8 0-8.3.9-2.5 2.5-4.5 4.7-6.1l-.1-.2c-1.5 0-2.9-.2-4.3-.7-1.4-.4-2.7-1.1-3.9-1.9-1.2-.8-2.2-1.9-3.2-3.2-.7-1.2-1.4-2.6-1.9-4.2zm13-3.3c.6 2.1 1.8 3.6 3.7 4.6 1.8 1 3.8 1.2 6 .5 2.3-.7 3.9-1.9 4.9-3.7s1.2-3.8.5-5.9c-.7-2.2-1.9-3.7-3.7-4.6-1.8-.9-3.8-1-6.1-.3s-3.9 1.9-4.9 3.6c-.9 1.6-1.1 3.6-.4 5.8zm8 23.3c.5 1.8 1.6 3.1 3.2 3.9 1.6.8 3.3.9 5.1.4 1.9-.6 3.3-1.6 4.2-3.2.8-1.5 1-3.2.4-5-.5-1.7-1.5-3.1-3.1-4-1.5-.9-3.3-1.1-5.3-.5-1.9.6-3.3 1.7-4.1 3.3-.7 1.7-.9 3.4-.4 5.1zM596.6 947.1l1.7 11.1-18.9 23c-1.2 1.5-2.1 3-2.7 4.5-.6 1.5-.8 3.1-.6 4.8.3 2 1.2 3.5 2.6 4.6 1.5 1 3.2 1.4 5.3 1.1 2.2-.3 3.9-1.4 5.1-3.1 1.2-1.8 1.7-3.9 1.6-6.5l13-.2c.1 2.9-.3 5.6-1.2 8-.9 2.4-2.2 4.5-3.9 6.4-1.7 1.9-3.7 3.4-6 4.6-2.3 1.2-4.9 2-7.6 2.4-2.6.4-5.1.4-7.7.1-2.5-.3-4.9-1.1-7-2.2-2.1-1.1-3.9-2.7-5.4-4.7-1.5-2-2.4-4.4-2.8-7.3-.3-2-.3-3.9 0-5.5.3-1.7.8-3.3 1.5-4.8s1.6-3 2.6-4.3c1-1.4 2.1-2.7 3.2-4.1l11.3-13.5-22.9 3.4-1.7-11.6 40.5-6.2zM509.9 971.7c-.1-3 .3-5.6 1.4-7.9 1.1-2.3 2.5-4.2 4.4-5.7s4.1-2.8 6.6-3.6c2.6-.8 5.2-1.3 8-1.4 2.8-.1 5.5.1 8.1.7 2.6.6 4.9 1.6 6.9 2.9 2 1.4 3.6 3.1 4.9 5.3 1.3 2.2 2 4.7 2.1 7.7.1 1.7-.1 3.3-.6 4.8s-1.1 2.8-2 4c-.9 1.2-1.9 2.2-3.1 3.1-1.2.9-2.5 1.6-3.8 2.1v.2c2.5.8 4.6 2.2 6.4 4.2 1.7 2 2.7 4.5 2.8 7.7.1 2.6-.3 5-1.3 7-1 2.1-2.3 3.8-4.1 5.3-1.8 1.4-3.8 2.6-6.2 3.4-2.4.8-4.9 1.3-7.5 1.4-2.6.1-5.1-.1-7.5-.7-2.4-.6-4.5-1.5-6.4-2.7-1.9-1.3-3.4-2.9-4.6-4.8-1.2-2-1.8-4.2-2-6.8-.1-3.1.5-5.8 2-8s3.5-3.8 6-4.8v-.2c-1.4-.4-2.8-.9-4.1-1.7-1.3-.8-2.4-1.7-3.3-2.8-1-1.1-1.7-2.4-2.3-3.8s-.8-3.3-.8-4.9zm13.3-.2c.1 2.2.9 4 2.4 5.4 1.5 1.4 3.4 2 5.7 1.9 2.3-.1 4.2-.9 5.6-2.4 1.4-1.5 2.1-3.4 2-5.6-.1-2.3-.9-4.1-2.4-5.4-1.5-1.3-3.5-1.9-5.8-1.8-2.3.1-4.2.9-5.6 2.3s-2 3.3-1.9 5.6zm2.2 24.6c.1 1.9.8 3.4 2.2 4.6 1.4 1.2 3 1.7 4.9 1.6 2-.1 3.6-.8 4.8-2.1 1.2-1.3 1.7-2.9 1.6-4.7-.1-1.8-.8-3.4-2-4.6-1.3-1.3-2.9-1.9-5-1.8-2 .1-3.6.8-4.8 2.2-1.2 1.4-1.8 3-1.7 4.8zM444.7 970c.3-3.2 1.1-6 2.5-8.5 1.4-2.4 3.2-4.5 5.4-6s4.7-2.7 7.5-3.4c2.8-.7 5.7-.9 8.7-.6 3.1.3 5.9 1 8.5 2.2s4.8 2.7 6.7 4.7c1.9 1.9 3.3 4.2 4.2 6.8.9 2.6 1.3 5.5 1 8.5-.3 3.3-1.2 6.3-2.6 9-1.4 2.6-3.2 5.3-5.3 7.9l-15.5 19.1-16.2-1.5 15.7-18 .3-.4c-.6.2-1.2.3-2 .3h-2.1c-2.4-.2-4.8-.9-6.9-2-2.2-1.1-4-2.5-5.5-4.3-1.5-1.8-2.7-3.8-3.5-6.2-.9-2.2-1.2-4.8-.9-7.6zm13.3.9c-.2 2.6.4 4.7 1.8 6.6 1.4 1.8 3.5 2.9 6.2 3.1 2.7.2 4.9-.4 6.7-1.9 1.8-1.5 2.8-3.6 3.1-6.2.2-2.4-.4-4.6-1.8-6.5-1.4-1.9-3.5-3-6.2-3.2-2.7-.2-4.9.4-6.7 1.9-1.8 1.4-2.8 3.5-3.1 6.2zM442.7 950.4l-2.2 11-25.5 15.3c-1.6 1-3 2.2-4.1 3.3-1.1 1.2-1.8 2.6-2.2 4.3-.4 2-.1 3.7.9 5.2s2.6 2.4 4.7 2.8c2.2.4 4.1 0 5.8-1.2 1.7-1.3 2.9-3.1 3.7-5.6l12.3 4.2c-.9 2.8-2.1 5.1-3.8 7.1-1.7 2-3.6 3.5-5.8 4.7-2.2 1.2-4.6 1.9-7.2 2.3s-5.3.2-8-.3c-2.6-.5-5-1.3-7.3-2.5s-4.2-2.6-5.8-4.4-2.8-3.9-3.5-6.2c-.7-2.4-.8-5-.2-7.9.4-2 1-3.7 1.9-5.2.8-1.5 1.9-2.8 3-4 1.2-1.2 2.5-2.2 3.9-3.2 1.4-.9 2.9-1.9 4.3-2.8l15.2-8.9-22.7-4.5 2.3-11.5 40.3 8zM337.7 938.4c1-2.8 2.4-5.1 4.2-6.8 1.8-1.7 3.9-2.9 6.2-3.7 2.3-.7 4.8-1 7.5-.9 2.7.2 5.3.7 7.9 1.6 2.7.9 5.1 2.2 7.3 3.7s3.9 3.3 5.3 5.3 2.2 4.2 2.6 6.7c.4 2.5.1 5.1-.9 8-.6 1.6-1.3 3-2.3 4.2-1 1.2-2.1 2.2-3.4 3-1.3.8-2.6 1.4-4 1.7-1.4.4-2.9.5-4.3.5l-.1.2c2 1.7 3.5 3.7 4.4 6.2.9 2.5.8 5.2-.2 8.2-.9 2.5-2.1 4.5-3.8 6-1.7 1.6-3.6 2.7-5.8 3.4-2.2.7-4.5 1-7 .8-2.5-.1-5-.6-7.5-1.5s-4.7-2-6.7-3.4-3.7-3.1-4.9-4.9c-1.3-1.9-2.1-3.9-2.5-6.2-.4-2.3-.1-4.6.7-7.1 1-3 2.7-5.2 4.9-6.7s4.7-2.2 7.4-2.2l.1-.2c-1.2-.9-2.3-1.9-3.1-3.1-.9-1.2-1.6-2.5-2-3.8-.5-1.4-.7-2.9-.7-4.4-.1-1.4.2-3 .7-4.6zm5.3 28.5c-.6 1.8-.5 3.4.4 5s2.2 2.7 3.9 3.3c1.9.7 3.7.6 5.2-.1 1.6-.8 2.7-2 3.3-3.8.6-1.7.6-3.4-.1-5.1-.7-1.7-2-2.8-4-3.5-1.9-.7-3.6-.6-5.3.3-1.7 1-2.8 2.2-3.4 3.9zm7.2-23.6c-.7 2.1-.6 4 .3 5.9.9 1.9 2.4 3.2 4.6 3.9 2.2.8 4.3.7 6.1-.2 1.9-.9 3.2-2.4 3.9-4.5.8-2.2.7-4.1-.3-5.9-.9-1.8-2.5-3-4.7-3.8-2.2-.8-4.2-.8-6 .1-1.9.9-3.2 2.3-3.9 4.5zM283.9 937.5c1.4-3 3.3-5.6 5.5-7.5 2.2-2 4.8-3.9 7.7-5.6l21.1-12.6 14.7 6.9-21.1 11.7-.2.1c.6.1 1.3.2 2 .4s1.3.5 1.9.7c2.3 1.1 4.2 2.5 5.9 4.2 1.6 1.8 2.9 3.7 3.7 5.9.8 2.2 1.2 4.5 1.2 7-.1 2.5-.7 5-1.9 7.5-1.4 2.9-3.1 5.3-5.3 7.1s-4.5 3.1-7.1 3.8c-2.6.7-5.3.9-8.2.6-2.9-.3-5.7-1.1-8.4-2.4-2.8-1.3-5.2-3-7.3-5-2.1-2-3.6-4.2-4.7-6.7s-1.6-5.1-1.6-7.8c.1-2.8.8-5.5 2.1-8.3zm12 5.8c-1 2.2-1.2 4.5-.6 6.8.7 2.3 2.2 4 4.7 5.2 2.5 1.2 4.8 1.3 7 .5s3.9-2.5 5-4.9c1.1-2.3 1.3-4.6.5-6.8-.7-2.2-2.3-3.9-4.7-5-2.4-1.1-4.7-1.3-7-.5-2.1.7-3.7 2.3-4.9 4.7zM101.5 780.9l37.1-25.4 7.7 11.3-37.1 25.4 9 13.2-9.6 6.6-25.8-37.7 9.6-6.6 9.1 13.2z"/>
  <path d="M107.3 700.7l6.2 11.7L95.3 731l.1.1 25.5-4.9 6.2 11.7-28.7 30.9-6.7-12.5 19-18-.1-.2-25.6 5.6-6.2-11.7 18.8-18.4-.1-.1-25.5 5.8-6.4-12 41.7-6.6zM46.3 691.2c.9-.4 1.9-.6 2.9-.5 1 0 1.9.2 2.7.6.8.4 1.6.9 2.3 1.6.7.7 1.2 1.6 1.6 2.5.8 2 .8 3.9.1 5.8-.8 1.9-2.1 3.2-3.9 3.9-.9.4-1.8.5-2.8.5-1 0-1.9-.2-2.7-.6-.9-.4-1.6-.9-2.4-1.6-.7-.7-1.3-1.5-1.7-2.5-.4-.9-.6-1.9-.6-2.9s.2-1.9.5-2.8c.3-.9.8-1.6 1.5-2.3.8-.8 1.6-1.4 2.5-1.7zm54.1-6.9l-36.9 15.1-5-12.2 36.9-15.1 5 12.2zM58.8 659.4l14.5-4.9c1.8-.6 3-1.4 3.6-2.4.7-1 .7-2.4.1-4.1-.2-.6-.5-1.2-.8-1.9-.3-.6-.7-1.2-1-1.5l9-3.3c.6.8 1.2 1.8 1.9 3s1.2 2.5 1.7 3.8c.9 2.5 1.3 4.8 1.2 6.7 0 1.9-.5 3.6-1.3 5.1-.8 1.4-2 2.7-3.5 3.7s-3.2 1.9-5.3 2.6l-16 5.5 2.1 6.1-9.2 3.2-2-6-9.9 3.4-4.2-12.4 9.9-3.4-3-8.9 9.2-3.2 3 8.9zM50.6 631.7l14.7-4c1.8-.5 3.1-1.2 3.8-2.2.7-.9.8-2.3.3-4.1-.2-.6-.4-1.3-.7-1.9-.3-.7-.6-1.2-.9-1.6l9.2-2.7c.5.8 1.1 1.8 1.7 3.1.6 1.3 1.1 2.6 1.5 3.9.7 2.6 1 4.8.8 6.8-.2 1.9-.7 3.6-1.6 5-.9 1.4-2.2 2.5-3.7 3.5-1.6.9-3.4 1.7-5.4 2.2L54 644.1l1.7 6.2-9.4 2.6-1.7-6.1-10.1 2.8-3.4-12.4 10.1-2.8-2.5-9 9.4-2.6 2.5 8.9zM49.5 574.5c.5-.1 1.1-.2 1.6-.3.5-.1 1-.2 1.5-.2l5.3 28.4c1.1-.3 2-.8 2.8-1.5.8-.7 1.4-1.6 1.9-2.6s.8-2.1 1-3.2c.2-1.1.1-2.3-.1-3.4-.4-2-1.1-3.7-2.1-5-1-1.3-2.2-2.2-3.6-2.9l4-10c3 1.3 5.5 3.4 7.5 6.1 2 2.8 3.4 6.1 4.1 10.1.5 2.9.6 5.8.2 8.6-.4 2.8-1.3 5.3-2.7 7.6-1.4 2.3-3.3 4.2-5.6 5.8-2.4 1.6-5.2 2.7-8.5 3.3-3.2.6-6.2.6-9 0s-5.3-1.7-7.4-3.3c-2.2-1.6-4-3.5-5.5-5.9-1.5-2.4-2.5-5.1-3-8.1-.5-2.9-.5-5.6 0-8.2.5-2.6 1.5-4.9 3.1-7 1.5-2.1 3.5-3.8 5.9-5.3 2.3-1.4 5.2-2.4 8.6-3zm-2.8 12.8c-2 .4-3.7 1.3-4.9 2.9-1.2 1.6-1.6 3.6-1.1 6.2.2 1.3.6 2.4 1.2 3.4s1.3 1.8 2.1 2.5 1.7 1.1 2.8 1.4c1 .3 2 .4 3 .3l-3.1-16.7zM36.7 541c-.1.6-.2 1.2-.2 1.7 0 .6 0 1.1.1 1.6.2 1.8.6 3.2 1.4 4.3.8 1.1 1.6 2 2.6 2.6 1 .6 2 1.1 3.1 1.3 1.1.2 2 .3 2.8.2l20.4-2 1.3 13.1-39.7 3.8-1.2-12.6 5.7-.6v-.2c-2.1-.8-3.9-2.1-5.4-3.8-1.5-1.7-2.3-3.8-2.6-6.3-.1-.5-.1-1.1-.1-1.6s0-.9.1-1.3l11.7-.2zM114.2 305.9c-.8 3.7-2.1 7.6-4 11.6-1.9 4.1-4.4 7.6-7.3 10.4-2.9 2.8-6.2 4.9-9.7 6.3-3.5 1.4-7.3 2-11.3 1.8-4-.2-8-1.2-12-3.1-4.1-1.9-7.5-4.4-10.1-7.4-2.7-3-4.6-6.3-5.7-9.9-1.2-3.6-1.6-7.4-1.2-11.4.3-4 1.4-7.9 3.3-11.8 1.9-4.1 4.3-7.5 7.2-10.4 2.9-2.9 5.9-4.9 9-6.1l5.2 12c-2 .5-3.9 1.6-5.7 3.2-1.8 1.6-3.3 3.6-4.5 6.1-1 2.2-1.6 4.4-1.6 6.6-.1 2.2.3 4.3 1.1 6.4.8 2 2 3.9 3.6 5.5 1.6 1.7 3.6 3.1 5.9 4.2 2.4 1.1 4.7 1.8 7 2.1 2.3.3 4.5.1 6.5-.6 2.1-.7 3.9-1.8 5.7-3.3s3.2-3.6 4.4-6.1c.7-1.4 1.2-2.9 1.6-4.3.4-1.4.6-2.8.7-4.1l-9.3-4.4-4.6 9.8-10-4.7 10-21.1 27.2 12.8c-.3 2.7-.6 6.1-1.4 9.9zM85.4 250.2c.9.5 1.6 1.2 2.1 2 .6.8.9 1.6 1.1 2.5.2.9.2 1.8.1 2.8-.2 1-.5 1.9-1 2.8-1.1 1.8-2.6 3-4.6 3.5-2 .5-3.8.3-5.5-.7-.8-.5-1.5-1.1-2.1-1.9-.6-.8-1-1.6-1.1-2.5-.2-.9-.2-1.9-.1-2.9s.4-1.9 1-2.9c.5-.9 1.2-1.6 2-2.2.8-.6 1.6-1 2.5-1.3.9-.2 1.8-.3 2.8-.2 1 .2 2 .5 2.8 1zm38.1 38.9l-34.3-20.3 6.7-11.3 34.3 20.3-6.7 11.3zM118.3 241l12.7 8.5c1.6 1 2.9 1.5 4.1 1.5 1.2-.1 2.3-.9 3.3-2.4.4-.5.7-1.1 1-1.8.3-.7.5-1.2.6-1.8l8.1 5.2c-.2.9-.7 2-1.2 3.3-.6 1.3-1.3 2.5-2 3.7-1.5 2.2-3 3.9-4.6 5-1.6 1.1-3.2 1.8-4.8 2-1.7.2-3.3 0-5-.6-1.7-.6-3.5-1.5-5.2-2.7l-14-9.4-3.6 5.3-8.1-5.5 3.5-5.2-8.7-5.9 7.2-10.7 8.7 5.9 5.2-7.8 8.1 5.5-5.3 7.9zM167.8 225.5L151 211.9c-.9-.7-1.8-1.3-2.6-1.8-.9-.5-1.8-.8-2.7-1-.9-.1-1.7-.1-2.6.2-.8.3-1.6.9-2.3 1.8-1.4 1.8-1.9 3.7-1.4 5.6.5 2 1.7 3.7 3.5 5.2l16.8 13.5-8.3 10.2-47.1-38 8.3-10.2 20 16.2.1-.1c-.7-1.7-.9-3.7-.6-6.1.3-2.3 1.3-4.6 3-6.7 1.7-2.1 3.5-3.6 5.4-4.4s3.8-1.2 5.7-1.2c1.9.1 3.8.5 5.6 1.4 1.9.8 3.6 1.9 5.1 3.1l19.2 15.5-8.3 10.4zM200.4 190.3l-3.9-3.9-.1.1c.3 1 .5 2 .5 3.1s-.1 2.2-.5 3.4c-.3 1.2-.8 2.3-1.4 3.5-.6 1.2-1.4 2.2-2.4 3.2-1.9 1.9-3.8 3.1-5.8 3.8-2 .6-3.9.8-5.8.5-1.9-.3-3.7-.9-5.4-1.9-1.7-1-3.3-2.2-4.8-3.7l-17.4-17.5 9.4-9.3 15.3 15.3c.8.8 1.6 1.5 2.4 2.1.8.6 1.7 1 2.6 1.3.9.2 1.8.3 2.6.1.9-.2 1.7-.7 2.6-1.6 1.6-1.6 2.3-3.5 1.9-5.5-.4-2.1-1.3-3.9-3-5.5L172 162.6l9.3-9.3 28.2 28.2-9.1 8.8zM238 132c1.7 2.2 3.1 4.5 4 7.1.9 2.5 1.4 5.1 1.3 7.6-.1 2.5-.6 5-1.7 7.4-1.1 2.4-2.8 4.5-5.2 6.4-2.1 1.7-4.4 2.8-6.9 3.4-2.5.6-4.9.6-7.2-.2l-.1.1 3.2 4.1-9.4 7.5-37.8-47.4 10.3-8.2 15.5 19.5.1-.1c0-1.7.5-3.7 1.4-5.8.9-2.1 2.5-4.1 4.8-6 2.3-1.8 4.6-3 7.2-3.6 2.5-.6 5-.6 7.5-.1s4.8 1.4 7.1 2.9c2.2 1.4 4.2 3.2 5.9 5.4zm-9.9 7.9c-.8-1-1.7-1.9-2.8-2.6-1.1-.7-2.2-1.2-3.4-1.4-1.2-.2-2.5-.2-3.7.1-1.3.3-2.5.9-3.7 1.9-1.2.9-2 2-2.6 3.2-.6 1.2-.9 2.4-.9 3.7 0 1.3.1 2.5.5 3.8.4 1.2 1 2.4 1.8 3.4s1.8 1.8 2.9 2.5c1.1.7 2.3 1.1 3.6 1.4 1.2.2 2.5.2 3.8-.1 1.3-.3 2.5-.9 3.7-1.8 1.2-1 2.1-2 2.6-3.2.6-1.2.8-2.4.9-3.7s-.2-2.5-.7-3.7c-.5-1.4-1.2-2.5-2-3.5z"/>


  <polygon points="24.9 535.3 73.8 551.5 81.1 594.8 84.2 634 100.4 672.1 114.6 700.7 127.1 728 146.3 766.8 121.3 812 108.6 812 82.8 774.3 63.5 699.4 46.5 705 43.8 692.9 43.9 678.4 24.9 637.5 31.1 637.2" class="hitarea twitter"/>
  <polygon points="46.5 299 74.3 255.8 104.3 207.6 148.1 175.4 181.5 139 176.1 119.8 193 111 200 128.5 225 123.7 242 139.1 248 153.4 209.5 195.1 159.7 235.4 130.2 289.1 102.2 336 64.4 334.9" class="hitarea github"/>
  <polygon points="439 70.4 591.3 70.3 738.7 128.4 866.4 245.7 907.8 353.7 945 425 956.1 529.3 915 697.6 954.7 704.4 991.5 576.6 992.6 519.3 1015.4 519.3 1014.3 473 992.2 458.5 954.2 289.1 954.9 255.1 921.9 241 883 195.1 899.9 178.9 877.3 147.6 855 153.4 745.7 79.1 667 40 660.6 19 641 26.1 576 24.2 433.6 26.1" class="hitarea mail"/>
  <polygon points="783 853 824 891 803.5 919.3 717.6 973.2 587 1012.9 454 1009.7 288.1 960.3 283.9 937.5 322 907 378.9 927 496 947.1 603.7 927 701 888.6" class="hitarea phone"/>
        </g>
    </svg>
