<?xml version="1.0" encoding="utf-8"?>
 <svg xmlns="https://www.w3.org/2000/svg" viewBox="0 0 1020 1020">
    <g id="contact">
<path class="st0" d="M462.9,17c-0.5-0.1-0.9-0.1-1.4-0.1c-0.6,0-1.1,0.1-1.7,0.1c-2.5,0.3-4.9,1.3-6.8,3c-1.8,1.6-3.2,3.7-4,6.1
	l-0.2,0l-0.8-6.3l-13.8,1.7l5.4,43.5l14.3-1.8l-2.8-22.3c-0.1-1-0.1-2.1,0.1-3.1c0.2-1.2,0.6-2.4,1.3-3.4c0.7-1.2,1.7-2.2,2.8-2.9
	c1.4-0.9,3-1.5,4.7-1.7c0.6-0.1,1.2-0.1,1.8-0.1c0.6,0,1.3,0,1.9,0.1L462.9,17L462.9,17z M514,27.9c-1.3-2.7-3.2-5.2-5.5-7.2
	c-2.3-1.9-5-3.4-7.9-4.3c-6.2-1.9-12.8-1.7-18.8,0.6c-2.8,1.1-5.4,2.7-7.6,4.8c-2.2,2.1-3.9,4.7-5,7.5c-1.2,3.1-1.8,6.4-1.6,9.8
	c0.1,3.3,0.8,6.6,2.2,9.7c1.3,2.8,3.2,5.2,5.5,7.2c2.3,2,5,3.5,7.9,4.5c6.1,2,12.8,1.8,18.8-0.6c2.8-1.2,5.4-2.8,7.6-5
	c2.2-2.1,3.9-4.7,5.1-7.6c1.2-3.1,1.8-6.5,1.6-9.8C516.2,34.2,515.5,30.9,514,27.9z M501.8,42.1c-0.4,1.3-1,2.6-1.9,3.7
	c-0.9,1.1-1.9,2-3.2,2.7c-2.8,1.4-6.1,1.5-9,0.3c-1.3-0.6-2.4-1.4-3.3-2.5c-0.9-1.1-1.6-2.3-2.1-3.6c-1-2.7-1.1-5.6-0.3-8.3
	c0.4-1.3,1-2.5,1.8-3.6c0.9-1.1,1.9-2,3.1-2.6c2.8-1.4,6.1-1.5,9-0.3c1.3,0.6,2.4,1.4,3.3,2.4c0.9,1,1.7,2.2,2.1,3.5
	c0.5,1.3,0.8,2.7,0.8,4.1C502.4,39.3,502.2,40.7,501.8,42.1L501.8,42.1z M594.1,67.4l3.2-27c0.2-2.1,0.2-4.3-0.1-6.4
	c-0.3-2.1-1-4.2-2-6.1c-1.1-1.9-2.6-3.5-4.4-4.8c-2.2-1.4-4.7-2.3-7.3-2.5c-2.9-0.4-5.8-0.1-8.6,1c-2.4,1.1-4.6,2.7-6.2,4.8
	c-0.9-2.4-2.4-4.6-4.5-6.1c-2.3-1.6-5-2.6-7.8-2.9c-1.5-0.2-3.1-0.2-4.6,0.1c-1.3,0.2-2.7,0.6-3.9,1.2c-1.1,0.5-2.2,1.2-3.1,2
	c-0.9,0.7-1.6,1.6-2.3,2.5l-0.2,0l0.7-6l-13.9-1.6l-5.2,43.6l14.4,1.7l2.8-23.6c0.2-2.4,1.1-4.6,2.7-6.4c1.4-1.6,3.5-2.4,5.6-2.1
	c1.9,0.1,3.6,1.1,4.5,2.8c0.9,1.9,1.1,4.1,0.8,6.1l-3,24.9l14.4,1.7l2.8-23.5c0.1-1.2,0.4-2.4,0.9-3.5c0.4-1,1-2,1.7-2.9
	c0.7-0.8,1.6-1.4,2.5-1.8c1-0.4,2.2-0.6,3.3-0.4c1.1,0.1,2.1,0.5,3,1.1c0.7,0.6,1.3,1.3,1.6,2.2c0.4,1,0.6,2,0.6,3
	c0,1.2,0,2.4-0.2,3.6l-2.8,23.8C579.8,65.7,594.1,67.4,594.1,67.4z M632.2,59.9c-0.5,2.4-1.9,4.4-4,5.7c-1.9,1.2-4.3,1.4-7.1,0.6
	c-0.7-0.2-1.4-0.5-2.1-0.8c-0.7-0.3-1.3-0.7-1.8-1.2c-0.5-0.5-0.8-1.1-1-1.7c-0.2-0.7-0.2-1.5,0-2.2c0.3-1.1,1-2.1,2-2.7
	c1.1-0.6,2.3-0.9,3.5-0.9c1.5-0.1,2.9,0,4.4,0.3c1.6,0.3,3.2,0.6,4.7,1l1.8,0.5L632.2,59.9L632.2,59.9z M616.8,42.9
	c1.7-0.9,3.6-1.5,5.5-1.8c2-0.4,4.1-0.3,6.1,0.3c1.9,0.5,3.7,1.5,5,3c1.2,1.5,1.6,3.4,1,5.2l-0.2,0.7c-3.2-0.8-6.4-1.5-9.6-2
	c-3.1-0.5-6.2-0.6-9.4-0.3c-2.7,0.2-5.3,1.1-7.6,2.6c-2.3,1.6-3.9,4-4.5,6.7c-0.7,2.2-0.7,4.5-0.2,6.7c0.5,1.9,1.4,3.6,2.6,5.1
	c1.2,1.4,2.7,2.6,4.4,3.6c1.6,0.9,3.3,1.6,5.1,2.1c2.4,0.7,5,0.8,7.5,0.5c2.2-0.3,4.3-1.2,6-2.8l0.3,0.1l-1.2,4.5l12.8,3.4l5.7-21.4
	c1-3.4,1.5-6.8,1.6-10.3c0.1-2.7-0.4-5.4-1.5-7.9c-1.1-2.3-2.8-4.3-4.9-5.7c-2.7-1.7-5.6-3-8.7-3.8c-3.5-0.9-7.1-1.3-10.7-0.9
	c-3.6,0.3-7,1.3-10.2,3L616.8,42.9L616.8,42.9z M683.1,31c-0.2-2.1-1.1-4.1-2.7-5.4c-0.8-0.7-1.8-1.3-2.8-1.7
	c-1.1-0.4-2.2-0.6-3.3-0.5c-1.1,0.1-2.1,0.3-3.1,0.7c-1,0.4-1.8,1-2.5,1.8c-0.7,0.8-1.3,1.7-1.6,2.7c-0.7,2-0.6,4.2,0.3,6.1
	c1,2,2.7,3.5,4.8,4.2c1,0.4,2.1,0.5,3.2,0.5c2.1,0,4.1-0.9,5.6-2.5C682.5,35.4,683.3,33.2,683.1,31L683.1,31L683.1,31z M662.1,88.4
	L677,47l-13.6-4.9l-14.8,41.3L662.1,88.4L662.1,88.4z M710.3,109.4l11.4-24.7c0.9-2,1.6-4.1,2-6.3c0.4-2.1,0.4-4.3-0.1-6.4
	c-0.5-2.1-1.4-4.1-2.8-5.8c-1.7-2-3.8-3.6-6.1-4.6c-1.3-0.6-2.7-1-4.2-1.2c-1.3-0.2-2.7-0.2-4.1-0.1c-1.3,0.1-2.5,0.4-3.7,0.9
	c-1.1,0.4-2.1,1-3,1.7l-0.2-0.1l2.5-5.5l-12.7-5.9l-18.3,39.9l13.2,6.1l9.9-21.6c0.5-1.1,1.2-2.1,1.9-3c0.7-0.9,1.6-1.6,2.6-2.2
	c0.9-0.5,2-0.8,3.1-0.9c1.2,0,2.3,0.2,3.4,0.7c1,0.4,1.9,1.1,2.6,2c0.6,0.8,0.9,1.7,1,2.7c0.1,1,0,2.1-0.3,3.1
	c-0.3,1.1-0.7,2.3-1.2,3.3l-10,21.8L710.3,109.4L710.3,109.4z M736.8,108.8c-1-3.4-4-5.9-7.6-6.3c-1.1-0.1-2.3-0.1-3.4,0.2
	c-1.1,0.3-2.1,0.8-3.1,1.5c-0.9,0.7-1.7,1.6-2.3,2.6c-0.6,1-1,2.1-1.1,3.3c-0.1,1.1,0,2.2,0.4,3.3c0.7,2.2,2.2,4.1,4.3,5.3
	c2,1.2,4.4,1.5,6.6,0.9c4.6-1.2,7.4-5.9,6.2-10.5C736.8,108.9,736.8,108.8,736.8,108.8L736.8,108.8z M770.3,126
	c-1.3,2.1-3.3,3.5-5.6,4.1c-2.2,0.5-4.5-0.1-6.9-1.8c-0.6-0.4-1.2-0.9-1.7-1.4c-0.5-0.5-0.9-1.1-1.2-1.8c-0.3-0.6-0.4-1.3-0.4-2
	c0-0.7,0.3-1.5,0.7-2.1c0.6-1,1.6-1.7,2.8-1.9c1.2-0.2,2.4-0.1,3.6,0.3c1.4,0.4,2.8,1,4,1.7c1.4,0.8,2.8,1.6,4.1,2.5l1.5,1
	L770.3,126L770.3,126z M761.5,104.9c1.9-0.3,3.9-0.2,5.8,0.1c2,0.3,4,1.1,5.7,2.3c1.7,1.1,3,2.6,3.8,4.5c0.7,1.8,0.4,3.8-0.8,5.3
	l-0.4,0.6c-2.7-1.8-5.5-3.5-8.4-5.1c-2.7-1.5-5.7-2.7-8.7-3.4c-2.6-0.7-5.4-0.7-8.1-0.1c-2.7,0.7-5,2.5-6.5,4.9
	c-1.3,1.8-2.2,4-2.4,6.2c-0.2,1.9,0.1,3.9,0.8,5.7c0.7,1.8,1.7,3.4,3,4.8c1.2,1.4,2.6,2.6,4.1,3.7c2.1,1.4,4.4,2.4,6.9,2.9
	c2.2,0.5,4.5,0.3,6.6-0.6l0.2,0.1l-2.6,3.9l10.9,7.5l12.5-18.3c2-2.8,3.7-5.9,4.9-9.2c1-2.5,1.4-5.2,1.2-7.9c-0.3-2.5-1.2-5-2.7-7
	c-1.9-2.5-4.3-4.7-7-6.4c-3-2-6.3-3.5-9.7-4.4c-3.5-0.9-7.1-1.1-10.6-0.5L761.5,104.9z M840.4,148.8l-11.7-10l-25.5,15.6l-0.2-0.2
	l11.5-27.7l-12.1-10.4l-15.4,44.6l11.9,10.1L840.4,148.8L840.4,148.8z M844.7,191.5c-1.7,1.7-4,2.8-6.4,2.8c-2.2,0-4.4-1.1-6.4-3.2
	c-0.5-0.5-1-1.1-1.3-1.8c-0.4-0.6-0.7-1.3-0.8-2c-0.1-0.7-0.1-1.4,0-2c0.2-0.7,0.6-1.4,1.1-1.9c0.8-0.8,2-1.3,3.1-1.2
	c1.2,0.1,2.4,0.4,3.5,1c1.3,0.7,2.5,1.6,3.6,2.6c1.2,1.1,2.4,2.2,3.5,3.3l1.3,1.3L844.7,191.5z M840.6,169c1.9,0.2,3.9,0.6,5.7,1.4
	c1.9,0.8,3.6,1.9,5,3.4c1.4,1.4,2.4,3.2,2.7,5.2c0.3,1.9-0.5,3.8-1.9,5l-0.5,0.5c-2.2-2.4-4.6-4.6-7.1-6.8c-2.4-2.1-5-3.8-7.8-5.2
	c-2.4-1.2-5.1-1.8-7.9-1.8c-2.8,0.2-5.4,1.4-7.4,3.4c-1.7,1.5-3,3.4-3.7,5.6c-0.6,1.8-0.7,3.8-0.5,5.7c0.3,1.9,0.9,3.7,1.9,5.3
	c0.9,1.6,2,3.1,3.2,4.5c1.7,1.9,3.8,3.3,6.1,4.3c2.1,0.9,4.3,1.2,6.6,0.8l0.2,0.2l-3.4,3.2l9.1,9.6l16.1-15.2c2.6-2.3,4.9-5,6.8-7.9
	c1.5-2.2,2.5-4.8,2.9-7.5c0.3-2.5-0.1-5.1-1.2-7.4c-1.4-2.9-3.2-5.5-5.4-7.8c-2.5-2.6-5.4-4.8-8.6-6.4c-3.2-1.6-6.7-2.6-10.2-2.8
	L840.6,169L840.6,169z M855.5,231.6l52.1-41.6l-9.2-11.5l-52,41.6L855.5,231.6L855.5,231.6z M869.7,251.1l54.2-38.7l-8.6-12
	l-54.2,38.7L869.7,251.1z M904.3,254.7c1-0.5,2.1-0.8,3.2-0.9c1.1-0.1,2.3,0.1,3.4,0.4c1.1,0.4,2.2,1,3.1,1.7c1,0.8,1.9,1.9,2.5,3
	c1.5,2.5,1.9,4.8,1.2,6.8c-0.7,2.1-2.1,3.8-4,4.9L904.3,254.7L904.3,254.7z M923.6,278.4c1.9-2.3,3.3-4.9,4.1-7.7
	c0.8-2.7,1-5.6,0.5-8.4c-0.5-3-1.6-5.9-3.1-8.5c-1.6-2.8-3.7-5.2-6.2-7.2c-2.3-1.9-5-3.2-7.9-4c-2.9-0.8-5.9-1-8.9-0.5
	c-3.3,0.5-6.5,1.6-9.3,3.4c-2.9,1.7-5.5,3.9-7.5,6.7c-1.8,2.4-3,5.2-3.6,8.2c-0.6,3-0.5,6,0.1,8.9c0.6,3.1,1.8,6.1,3.4,8.8
	c2,3.5,4.8,6.6,8.1,8.9c3,2,6.5,3.2,10.1,3.5l0.3-11.9c-1.7-0.2-3.4-0.7-4.8-1.6c-1.7-1.1-3.1-2.6-4.1-4.4c-1.3-2.2-1.8-4.7-1.6-7.2
	c0.1-1.2,0.5-2.3,1-3.4c0.6-1.1,1.3-2,2.3-2.7l16.3,27.4c0.5-0.2,1-0.5,1.5-0.8l1.5-0.9C918.8,283.3,921.4,281.1,923.6,278.4
	L923.6,278.4L923.6,278.4z M968.3,338.4c2.5-2.9,4.4-6.3,5.5-9.9c1.1-3.7,1.4-7.6,1-11.5c-0.4-4-1.4-8-3-11.7
	c-1.7-4.2-4.3-8-7.5-11.2c-3-3.1-6.6-5.5-10.6-7.2c-3.9-1.7-8.1-2.6-12.4-2.6c-4.5-0.1-8.9,0.8-13.1,2.6c-4.2,1.7-8,4.3-11.2,7.5
	c-3,3-5.3,6.6-6.8,10.5c-1.5,4-2.2,8.3-2,12.5c0.2,4.7,1.3,9.3,3.1,13.6c1.9,4.7,4.6,9,7.9,12.8c3.1,3.5,7.1,6.3,11.4,8.1l3.5-7.5
	c-3.2-1.5-6.2-3.5-8.6-6.1c-2.7-2.8-4.8-6.1-6.2-9.7c-1.4-3.2-2.2-6.6-2.4-10c-0.2-3.2,0.3-6.3,1.4-9.3c1.1-2.9,2.8-5.6,5-7.8
	c2.5-2.4,5.4-4.4,8.6-5.7c3.1-1.3,6.4-2.1,9.8-2.2c3.1-0.1,6.3,0.4,9.2,1.5c2.9,1.1,5.5,2.8,7.8,5c2.4,2.4,4.3,5.2,5.6,8.3
	c1.3,2.9,2,5.9,2.3,9c0.3,2.8,0,5.6-0.9,8.2c-0.9,2.6-2.3,5-4.2,6.9c-2.2,2.2-4.8,3.9-7.7,5.1c-3.8,1.6-6.9,2.2-9.3,1.7
	s-4-1.5-4.6-3.2c-0.4-0.7-0.4-1.6,0.1-2.2c0.5-0.6,1.1-1.1,1.8-1.3c1-0.4,2.1-0.7,3.1-0.9c1.3-0.3,2.6-0.6,4-0.9l13.8-2.9l-3.7-8.8
	l-3,0.6l0-0.1c1.1-1,1.8-2.4,2-3.9c0.3-1.9,0-3.9-0.9-5.7c-0.9-2.3-2.4-4.2-4.3-5.7c-1.9-1.4-4-2.5-6.2-3.2
	c-2.3-0.7-4.8-0.9-7.2-0.7c-2.5,0.2-4.9,0.8-7.2,1.7c-1.9,0.8-3.6,1.8-5.2,3.2c-1.4,1.2-2.5,2.6-3.4,4.2c-0.8,1.5-1.2,3.2-1.3,4.9
	c0,1.8,0.3,3.7,1.1,5.3c0.8,2.2,2.3,4.1,4.2,5.4c1.5,1,3.2,1.7,5,2.1l0.1,0.3c-1.5,0.9-2.5,2.3-2.8,4c-0.3,2,0,4.1,0.8,5.9
	c0.9,2.3,2.3,4.3,4.1,6c1.7,1.7,3.8,2.9,6.1,3.7c2.5,0.8,5.1,1.1,7.7,0.9C956.4,347.2,963.3,343.8,968.3,338.4L968.3,338.4
	L968.3,338.4z M942.1,322.3c-1.2,0.2-2.5,0.3-3.7,0.1c-1.2-0.1-2.3-0.5-3.3-1.1c-1-0.6-1.8-1.6-2.2-2.7c-0.7-1.7-0.6-3.2,0.3-4.3
	c0.9-1.1,2.1-2,3.5-2.6c1.2-0.5,2.5-0.9,3.9-1.1c1.3-0.2,2.6-0.2,4,0c1.2,0.1,2.3,0.5,3.3,1.1c1.7,1,2.7,2.9,2.5,4.9
	c-0.1,0.7-0.4,1.4-0.8,2c-0.5,0.6-1.1,1.1-1.7,1.5c-0.7,0.5-1.5,0.9-2.3,1.2C944.4,321.8,943.2,322.1,942.1,322.3L942.1,322.3
	L942.1,322.3z M980.9,398.9l-3.5-13.2l-5.5,1.4l0-0.2c1.8-2,3.1-4.5,3.5-7.2c0.4-2.7,0.3-5.5-0.4-8.1c-1.4-5.7-5.3-10.6-10.7-13.1
	c-2.6-1.2-5.3-1.9-8.1-2.1c-3-0.2-5.9,0.1-8.8,0.9c-2.9,0.7-5.6,2-8,3.6c-2.3,1.5-4.3,3.5-5.9,5.8c-1.5,2.3-2.6,4.9-3,7.6
	c-0.5,3-0.3,6.1,0.5,9.1c0.6,2.6,1.9,5.1,3.5,7.2c1.5,1.8,3.3,3.3,5.5,4.2l0.1,0.3l-2.6,0.7c-3.1,1-6.5,0.8-9.4-0.7
	c-2.7-1.4-4.6-4.1-5.6-8.2c-0.6-2.5-0.8-5.1-0.6-7.6c0.2-2.7,1-5.4,2.3-7.8l-11.8-4.3c-1.4,3.7-2.2,7.6-2.2,11.6
	c-0.1,4,0.3,8.1,1.4,12c0.9,3.5,2.3,6.8,4.2,9.9c1.7,2.7,3.9,5,6.6,6.7c2.7,1.7,5.8,2.7,9,3c3.8,0.3,7.6,0,11.3-1.1L980.9,398.9
	L980.9,398.9z M952.1,391.6c-1.4-0.1-2.7-0.5-4-1.1c-2.6-1.4-4.5-3.8-5.2-6.7c-0.8-2.8-0.3-5.8,1.3-8.2c0.8-1.1,1.8-2.1,2.9-2.9
	c1.2-0.8,2.5-1.4,3.9-1.8c1.4-0.4,2.9-0.5,4.4-0.4c1.4,0.1,2.7,0.5,3.9,1.1c1.2,0.6,2.3,1.5,3.1,2.5c0.9,1.2,1.6,2.5,2,4
	c0.4,1.5,0.5,3,0.3,4.5c-0.2,1.4-0.7,2.7-1.5,3.9c-0.8,1.2-1.7,2.2-2.9,3c-1.2,0.8-2.5,1.4-3.9,1.8
	C955,391.6,953.5,391.7,952.1,391.6L952.1,391.6z M948.5,489.4l27-2.9c2.1-0.2,4.2-0.7,6.2-1.5c2-0.7,3.9-1.9,5.5-3.3
	c1.6-1.5,2.9-3.3,3.7-5.3c0.9-2.4,1.2-5.1,0.8-7.7c-0.2-2.9-1.2-5.7-2.9-8.1c-1.6-2.1-3.6-3.9-6-5c2.2-1.4,3.9-3.4,5-5.7
	c1.1-2.6,1.5-5.4,1.1-8.2c-0.1-1.5-0.5-3-1.1-4.5c-0.5-1.3-1.2-2.5-2-3.6c-0.7-1-1.6-1.9-2.6-2.6c-0.9-0.7-1.9-1.2-2.9-1.7l0-0.2
	l6-0.6l-1.5-13.9l-43.7,4.6l1.5,14.5l23.7-2.5c2.4-0.3,4.8,0.1,6.9,1.2c1.9,1,3.1,2.9,3.3,5c0.3,1.8-0.3,3.7-1.7,5
	c-1.7,1.3-3.7,2-5.8,2.1l-24.9,2.6l1.5,14.4l23.6-2.5c1.2-0.1,2.4-0.1,3.6,0.1c1.1,0.2,2.2,0.5,3.2,1c0.9,0.5,1.7,1.2,2.3,2.1
	c0.6,0.9,1,2,1.1,3.1c0.2,1.1,0,2.2-0.4,3.2c-0.4,0.8-1,1.6-1.8,2.1c-0.9,0.6-1.8,1-2.8,1.3c-1.2,0.3-2.3,0.5-3.5,0.6L947,475
	L948.5,489.4L948.5,489.4z M964.3,524.8c-2.4,0-4.7-0.9-6.5-2.6c-1.6-1.6-2.3-3.9-2.2-6.8c0-0.7,0.1-1.5,0.3-2.2
	c0.2-0.7,0.4-1.4,0.8-2c0.4-0.6,0.9-1.1,1.5-1.4c0.6-0.4,1.4-0.5,2.1-0.5c1.2,0,2.3,0.5,3.1,1.3c0.8,0.9,1.4,2,1.7,3.2
	c0.4,1.4,0.6,2.9,0.7,4.3c0.1,1.6,0.1,3.2,0,4.8l-0.1,1.8L964.3,524.8L964.3,524.8z M977.4,506c1.2,1.5,2.3,3.2,3,5
	c0.8,1.9,1.2,3.9,1.1,6c0,2-0.6,3.9-1.8,5.6c-1.1,1.5-3,2.3-4.9,2.1l-0.7,0c0.1-3.3,0.1-6.5-0.2-9.8c-0.2-3.1-0.8-6.2-1.8-9.2
	c-0.8-2.6-2.3-4.9-4.2-6.9c-2.1-1.9-4.8-2.9-7.6-2.9c-2.3-0.2-4.5,0.3-6.6,1.3c-1.7,0.9-3.2,2.1-4.4,3.7c-1.1,1.5-2,3.2-2.5,5.1
	c-0.5,1.8-0.8,3.6-0.9,5.4c-0.1,2.5,0.3,5.1,1.2,7.4c0.8,2.1,2.2,3.9,4,5.2l0,0.3l-4.7-0.2l-0.5,13.2l22.1,0.8
	c3.5,0.2,7-0.1,10.4-0.7c2.7-0.5,5.2-1.6,7.4-3.2c2-1.6,3.6-3.7,4.5-6.1c1.1-3,1.7-6.1,1.7-9.3c0.1-3.6-0.4-7.2-1.5-10.6
	c-1.1-3.4-2.8-6.6-5.2-9.2L977.4,506L977.4,506z M1003.9,567.9c2-0.6,3.7-2,4.7-3.9c0.5-1,0.9-2,1-3.1c0.1-1.1,0-2.2-0.3-3.3
	c-0.3-1-0.8-2-1.4-2.8c-0.6-0.8-1.4-1.5-2.3-2c-0.9-0.5-1.9-0.8-2.9-1c-2.1-0.3-4.2,0.3-5.8,1.7c-1.7,1.4-2.8,3.4-3,5.6
	c-0.1,1.1-0.1,2.2,0.2,3.3c0.5,2,1.8,3.8,3.6,4.9C999.6,568.3,1001.8,568.6,1003.9,567.9L1003.9,567.9z M943.3,560.4l43.6,5.1
	l1.7-14.4L945,546L943.3,560.4z M939.4,584.2l65.7,11.4l2.5-14.5L942,569.7L939.4,584.2z M948.1,609.9c3-2,4.5-5.5,3.9-9.1
	c-0.2-1.1-0.6-2.2-1.2-3.2c-0.6-1-1.4-1.8-2.3-2.5c-0.9-0.7-2-1.2-3.1-1.4c-1.1-0.3-2.3-0.3-3.5-0.1c-1.1,0.2-2.1,0.7-3.1,1.3
	c-1.9,1.3-3.3,3.3-3.8,5.6c-0.6,2.2-0.2,4.6,1,6.6c2.5,4.1,7.8,5.4,11.8,2.9C948,610,948,609.9,948.1,609.9z M958.2,665.5
	c1.2-0.6,2.3-1.4,3.2-2.3c1.1-1,2.1-2.1,3-3.2c0.9-1.3,1.7-2.6,2.5-3.9c0.7-1.4,1.4-2.9,1.8-4.4c1-3.1,1.4-6.4,1.3-9.7
	c-0.1-3.1-0.8-6.1-2.1-8.9c-1.3-2.8-3.2-5.2-5.5-7.2c-5.2-4.3-11.9-6.4-18.6-5.8c-3,0.3-6,1.3-8.6,2.8c-2.6,1.6-4.9,3.6-6.8,6.1
	c-2,2.7-3.5,5.6-4.4,8.8c-0.9,3-1.4,6.1-1.3,9.2c0,2.8,0.7,5.5,1.9,8l11.7-4.7c-0.8-1.2-1.2-2.6-1.3-4c-0.1-1.5,0.1-3,0.5-4.4
	c0.4-1.4,1.1-2.7,2.1-3.8c0.9-1,2-1.8,3.3-2.4c1.3-0.6,2.6-0.9,4-0.9c1.5,0,2.9,0.2,4.3,0.6c1.4,0.4,2.7,1.1,3.9,2
	c1.1,0.8,2,1.9,2.8,3c0.7,1.1,1.2,2.4,1.4,3.8c0.2,1.4,0.1,2.9-0.4,4.2c-0.5,1.4-1.2,2.7-2.2,3.8c-0.9,1.1-2.1,1.9-3.4,2.4
	L958.2,665.5L958.2,665.5z M930.7,710.7c3,0,6.1-0.7,8.8-1.9c2.8-1.3,5.2-3.1,7.3-5.3c4.4-4.7,7-10.8,7.5-17.2
	c0.2-3-0.1-6.1-1.1-8.9c-1-2.9-2.5-5.5-4.6-7.7c-2.3-2.4-5-4.4-8.1-5.7c-3-1.4-6.4-2.1-9.7-2.1c-3.1,0-6.1,0.6-8.9,1.8
	c-2.8,1.2-5.3,3-7.4,5.2c-4.5,4.7-7.2,10.8-7.5,17.2c-0.2,3,0.2,6.1,1.2,9c1,2.9,2.6,5.6,4.7,7.8c2.3,2.4,5.1,4.4,8.1,5.7
	C924.1,710,927.4,710.7,930.7,710.7L930.7,710.7z M923.1,693.5c-1-0.9-1.9-2-2.6-3.3c-0.6-1.3-1-2.6-1.1-4c0-3.1,1.3-6.1,3.6-8.2
	c1.1-0.9,2.3-1.6,3.7-1.9c1.3-0.4,2.8-0.5,4.1-0.4c2.8,0.3,5.5,1.4,7.6,3.3c1,0.9,1.9,2,2.5,3.2c0.6,1.2,1,2.6,1,4
	c0,3.1-1.3,6.1-3.6,8.2c-1.1,0.9-2.3,1.6-3.6,2c-1.3,0.4-2.7,0.5-4.1,0.4c-1.4-0.1-2.8-0.4-4.1-1
	C925.3,695.2,924.1,694.5,923.1,693.5z M860.5,765.9l23,14.5c1.8,1.1,3.7,2,5.8,2.7c2,0.7,4.2,0.9,6.4,0.8c2.2-0.1,4.3-0.8,6.2-1.9
	c2.2-1.4,4.1-3.2,5.4-5.5c1.6-2.4,2.6-5.2,2.8-8.2c0.1-2.7-0.5-5.3-1.6-7.7c2.6,0.3,5.2-0.2,7.5-1.4c2.5-1.4,4.5-3.4,5.9-5.8
	c0.8-1.3,1.5-2.7,1.9-4.2c0.4-1.3,0.6-2.7,0.6-4c0-1.2-0.1-2.5-0.4-3.7c-0.3-1.1-0.7-2.1-1.3-3.1l0.1-0.2l5.1,3.2l7.5-11.9
	l-37.1-23.4l-7.8,12.3l20.1,12.7c2.1,1.2,3.7,3,4.7,5.2c0.9,1.9,0.7,4.2-0.5,6c-0.9,1.7-2.5,2.7-4.4,2.8c-2.1,0-4.1-0.7-5.9-1.9
	L883.2,730l-7.7,12.2l20.1,12.7c1,0.6,2,1.4,2.8,2.3c0.8,0.8,1.4,1.7,1.8,2.8c0.4,1,0.6,2,0.6,3.1c-0.1,1.1-0.4,2.2-1,3.1
	c-0.5,0.9-1.3,1.7-2.3,2.2c-0.8,0.4-1.8,0.6-2.7,0.5c-1-0.1-2.1-0.3-3-0.8c-1.1-0.5-2.2-1-3.2-1.7l-20.3-12.8L860.5,765.9
	L860.5,765.9z M774,905.9c2.8,2.5,6,4.5,9.6,5.9c3.3,1.2,6.8,1.7,10.3,1.3c3.9-0.5,7.5-2.1,10.6-4.5c3.2-2.2,5.8-5.3,7.5-8.8
	c1.5-3.2,2.1-6.7,2-10.2c-0.2-3.8-1.1-7.5-2.7-10.9c-3.5-7.7-8.6-14.7-14.9-20.3c-2.8-2.6-6.1-4.6-9.7-6c-11.2-3.7-23.4,1.4-28.6,12
	c-1.4,3.2-2,6.8-1.8,10.3c0.3,3.8,1.2,7.5,2.8,11c1.7,3.9,3.9,7.5,6.4,11C768,900,770.9,903.1,774,905.9L774,905.9z M774.2,882.1
	c-1.2-1.9-2.1-4-2.8-6.1c-0.7-1.8-0.9-3.8-0.8-5.8c0.1-1.8,1.1-3.4,2.6-4.5c1.4-1.1,3.3-1.5,5.1-1.1c1.9,0.4,3.7,1.3,5.3,2.4
	c1.8,1.3,3.5,2.8,5,4.5c1.6,1.8,3,3.5,4.2,5.1c1.1,1.6,2.3,3.4,3.5,5.4c1.2,1.9,2.1,4,2.8,6.1c0.6,1.9,0.9,3.9,0.7,5.8
	c-0.2,1.8-1.1,3.5-2.6,4.5c-1.4,1.1-3.3,1.5-5,1.1c-1.9-0.5-3.7-1.3-5.3-2.5c-1.8-1.3-3.5-2.8-4.9-4.5c-1.6-1.8-2.9-3.4-4.1-5
	C776.6,886,775.4,884.1,774.2,882.1L774.2,882.1z M715,923c2.1,1.6,4.5,2.8,7,3.5c2.5,0.7,5.1,0.8,7.7,0.5c2.6-0.4,5.2-1.2,7.5-2.5
	c0.7-0.4,1.3-0.8,1.9-1.3c0.6-0.4,1.1-0.9,1.6-1.5l0,0.5l-3,26.1l15.6-8.7l2.2-27c0.3-3.5,0.2-7-0.1-10.5c-0.4-3.4-1.5-6.8-3.2-9.8
	c-1.5-2.8-3.6-5.3-6.2-7.1c-2.4-1.8-5.1-3-8-3.6c-3-0.6-6-0.6-9-0.1c-6.4,1.2-12.2,4.5-16.6,9.3c-2,2.2-3.6,4.9-4.7,7.7
	c-1,2.8-1.4,5.8-1.1,8.8c0.3,3.3,1.3,6.4,2.9,9.3C710.9,919.1,712.8,921.3,715,923z M721.1,901.4c0.8-2.5,2.5-4.7,4.9-5.9
	c2.3-1.4,5.1-1.8,7.7-1c2.5,0.8,4.5,2.5,5.7,4.8c2.8,4.4,1.4,10.2-3,13c-0.3,0.2-0.6,0.3-0.9,0.5c-2.3,1.4-5,1.8-7.5,1
	c-2.5-0.8-4.5-2.5-5.7-4.8C720.8,906.8,720.4,904,721.1,901.4L721.1,901.4z M642.6,951.5c1.9,1.9,4.1,3.4,6.6,4.3
	c2.6,0.9,5.3,1.3,8,1.2c3-0.2,5.9-0.8,8.7-1.8c1-0.4,2-0.7,2.9-1.2c1-0.4,1.9-0.9,2.8-1.5l2.8,9.5l-23.7,8.3l4.2,12l36.1-12.7
	l-10.4-34.2c-2,1.7-4.2,3.1-6.5,4.4c-2.2,1.3-4.5,2.4-6.9,3.2c-1.5,0.5-2.9,0.9-4.5,1.1c-1.5,0.2-2.9,0.2-4.4-0.1
	c-1.4-0.3-2.7-0.9-3.8-1.8c-1.2-1-2.1-2.4-2.6-3.9c-1-2.8-0.9-5.3,0.4-7.3c2.6-4.1,7.6-5.9,12.2-4.5c2.1,0.7,3.9,2,5.2,3.9L681,922
	c-1.4-2-3.2-3.8-5.3-5.2c-2.1-1.4-4.3-2.3-6.7-2.9c-2.5-0.6-5.1-0.8-7.6-0.6c-2.7,0.2-5.4,0.7-8,1.6c-2.9,1-5.5,2.4-7.9,4.2
	c-2.4,1.8-4.4,3.9-5.9,6.4c-1.6,2.5-2.5,5.4-2.8,8.3c-0.3,3.4,0.2,6.8,1.4,10C639,946.8,640.5,949.4,642.6,951.5L642.6,951.5
	L642.6,951.5z M582.9,959c1.7,2.8,4.3,5,7.3,6.2c1.5,0.6,3.1,1,4.7,1.1l0.1,0.3c-2.5,1.5-4.5,3.6-5.7,6.3c-1.2,2.9-1.5,6.1-0.7,9.1
	c0.5,2.6,1.7,5,3.4,7.1c1.6,1.9,3.6,3.4,5.9,4.4c2.4,1,4.9,1.6,7.5,1.8c2.8,0.2,5.6-0.1,8.3-0.7c2.7-0.6,5.4-1.6,7.9-2.9
	c2.3-1.2,4.4-2.8,6.1-4.8c1.6-1.9,2.8-4.1,3.5-6.5c0.7-2.6,0.7-5.3,0.1-7.9c-0.5-3.1-2.1-5.8-4.5-7.8c-2.2-1.8-4.9-3-7.7-3.3l0-0.2
	c2.8-1.6,5.1-4,6.6-6.9c0.7-1.5,1.2-3.1,1.5-4.7c0.2-1.8,0.1-3.6-0.2-5.3c-0.6-2.9-1.8-5.7-3.7-8c-1.7-2.1-3.9-3.7-6.3-4.8
	c-2.5-1.1-5.3-1.8-8-1.9c-6-0.3-12,1-17.3,3.8c-2.5,1.3-4.7,3-6.5,5.1c-3.8,4.3-5.2,10.3-3.8,15.8C581.4,955.9,582,957.5,582.9,959
	L582.9,959L582.9,959z M603.3,972.3c1.1-1.7,2.8-2.9,4.8-3.3c2-0.5,4.1-0.2,5.8,1c1.6,1.1,2.7,2.8,3,4.7c0.5,1.9,0.1,3.8-0.9,5.4
	c-1.1,1.7-2.9,2.8-4.8,3.1c-1.9,0.5-3.9,0.1-5.6-0.9c-1.7-1-2.9-2.6-3.2-4.5C601.9,976,602.3,974,603.3,972.3L603.3,972.3z
	 M596.6,945.2c1.3-1.9,3.4-3.1,5.6-3.5c2.2-0.6,4.6-0.3,6.6,0.9c1.9,1.2,3.3,3.1,3.6,5.4c0.6,2.2,0.2,4.6-1.1,6.5
	c-1.3,1.9-3.4,3.3-5.7,3.7c-2.2,0.6-4.6,0.2-6.6-1.1c-1.9-1.2-3.2-3.2-3.6-5.4C594.9,949.4,595.3,947.1,596.6,945.2z M503.5,942.4
	l0.6,12.9l25.5-1.1l-13.9,13.5c-1.3,1.3-2.6,2.7-3.9,4.1c-1.3,1.4-2.4,2.8-3.3,4.4c-1,1.6-1.7,3.3-2.2,5.1c-0.5,2-0.7,4-0.6,6.1
	c0.1,2.9,0.8,5.8,2.3,8.4c1.3,2.3,3.1,4.3,5.3,5.8c2.2,1.5,4.7,2.6,7.4,3.2c2.8,0.6,5.6,0.9,8.4,0.8c2.9-0.1,5.9-0.7,8.6-1.8
	c2.6-1,5-2.5,7.1-4.3c2.1-1.9,3.7-4.1,5-6.6c1.3-2.7,2.1-5.6,2.2-8.6l-14.3-1.3c-0.1,2.5-0.9,5-2.5,6.9c-3,3.4-8.1,3.8-11.6,1
	c-1.5-1.4-2.3-3.3-2.4-5.3c-0.1-1.8,0.3-3.6,1.2-5.2c1-1.7,2.1-3.3,3.5-4.6l23.3-23.1l-0.5-12.3L503.5,942.4L503.5,942.4z
	 M447.3,961.6c0.8,3.2,2.7,6,5.3,8c1.3,1,2.7,1.8,4.2,2.4l0,0.3c-2.8,0.7-5.3,2.2-7.2,4.4c-2,2.4-3.2,5.4-3.3,8.5
	c-0.3,2.6,0.2,5.3,1.2,7.7c1,2.3,2.5,4.3,4.4,5.9c2,1.7,4.2,3,6.6,3.8c2.6,1,5.4,1.5,8.1,1.7c2.8,0.2,5.6,0.1,8.4-0.5
	c2.6-0.5,5-1.5,7.2-2.8c2.1-1.3,3.9-3.1,5.2-5.2c1.4-2.3,2.2-4.9,2.4-7.5c0.4-3.1-0.4-6.2-2.1-8.8c-1.6-2.4-3.8-4.2-6.4-5.4l0-0.2
	c3.2-0.7,6-2.4,8.3-4.7c1.1-1.2,2.1-2.6,2.8-4.1c0.7-1.6,1.2-3.4,1.3-5.2c0.3-3-0.1-6-1.3-8.7c-1-2.5-2.6-4.7-4.7-6.4
	c-2.1-1.8-4.5-3.2-7.1-4.1c-5.7-2-11.8-2.5-17.7-1.4c-2.7,0.5-5.4,1.5-7.7,3c-4.9,3.1-7.9,8.3-8.2,14.1
	C446.7,958.1,446.8,959.9,447.3,961.6L447.3,961.6z M463,980.2c1.5-1.4,3.5-2,5.5-1.8c2,0.1,4,1,5.2,2.6c1.2,1.5,1.8,3.4,1.6,5.3
	c-0.1,1.9-1,3.7-2.4,4.9c-1.5,1.3-3.5,1.8-5.5,1.6c-2-0.1-3.8-1-5.1-2.4c-1.3-1.4-2-3.3-1.8-5.3C460.6,983.3,461.5,981.4,463,980.2
	L463,980.2L463,980.2z M464.3,952.2c1.8-1.4,4.1-2,6.4-1.8c2.3,0.1,4.5,1.1,6.1,2.7c1.5,1.7,2.2,4,1.9,6.2c-0.1,2.3-1.1,4.4-2.9,5.9
	c-1.8,1.5-4.1,2.2-6.5,1.9c-2.3-0.1-4.5-1.1-6-2.9c-1.5-1.7-2.2-4-1.9-6.2C461.5,955.8,462.5,953.7,464.3,952.2L464.3,952.2
	L464.3,952.2z M368.7,951.2c0.4,2.6,1.4,5.1,2.7,7.3c1.4,2.2,3.2,4.1,5.3,5.6c2.2,1.5,4.6,2.7,7.2,3.3c0.7,0.2,1.5,0.3,2.3,0.4
	c0.7,0.1,1.5,0.1,2.2,0l-0.4,0.4l-20.1,16.9l17.3,4.4l20.1-18.1c2.6-2.3,5-4.9,7.1-7.7c2.1-2.8,3.6-5.9,4.4-9.3
	c0.8-3.1,1-6.3,0.4-9.5c-0.5-2.9-1.7-5.7-3.4-8.1c-1.7-2.5-3.9-4.6-6.5-6.2c-5.5-3.5-12-5.2-18.5-4.7c-3,0.2-6,1-8.7,2.4
	c-2.7,1.4-5,3.3-6.9,5.6c-2,2.6-3.5,5.6-4.2,8.8C368.4,945.5,368.3,948.4,368.7,951.2L368.7,951.2L368.7,951.2z M387.9,939.6
	c2.3-1.3,5-1.7,7.6-0.9c2.7,0.5,4.9,2.2,6.2,4.6c1.2,2.3,1.5,4.9,0.9,7.4c-1,5.1-6,8.4-11,7.4c-0.3-0.1-0.7-0.2-1-0.3
	c-2.6-0.5-4.8-2.1-6.2-4.4c-1.3-2.3-1.6-4.9-0.9-7.4C384.1,943.4,385.6,941.1,387.9,939.6z M324.8,903.4l-4.7,12l23.7,9.3l-18.2,6.7
	c-1.8,0.7-3.5,1.4-5.2,2.2c-1.7,0.7-3.3,1.6-4.8,2.7c-1.5,1.1-2.9,2.3-4.1,3.8c-1.3,1.6-2.3,3.4-3,5.3c-1.1,2.7-1.6,5.7-1.3,8.6
	c0.3,2.6,1.1,5.2,2.5,7.4c1.4,2.3,3.3,4.3,5.4,5.9c2.3,1.7,4.7,3.1,7.4,4.1c2.7,1.1,5.6,1.7,8.6,1.9c2.8,0.2,5.6-0.2,8.2-1.1
	c2.6-0.9,5.1-2.2,7.2-4c2.3-1.9,4.2-4.3,5.5-7l-12.5-7c-1.1,2.3-2.9,4.2-5.1,5.4c-4.1,1.9-9,0.2-11.1-3.8c-0.8-1.9-0.8-4,0-5.8
	c0.6-1.7,1.7-3.2,3.2-4.2c1.6-1.2,3.3-2.1,5.1-2.8l30.7-11.6l4.5-11.5L324.8,903.4L324.8,903.4z M247.9,886.8
	c-0.7,3.2-0.3,6.5,1.1,9.5c0.7,1.5,1.6,2.8,2.7,4l-0.1,0.2c-2.8-0.7-5.8-0.4-8.4,0.7c-2.9,1.2-5.3,3.4-6.8,6.1
	c-1.4,2.2-2.2,4.8-2.4,7.5c-0.1,2.5,0.3,4.9,1.3,7.2c1,2.4,2.4,4.5,4.2,6.4c1.9,2,4.1,3.8,6.5,5.2c2.4,1.5,5,2.6,7.7,3.3
	c2.5,0.7,5.1,0.9,7.7,0.7c2.5-0.2,4.9-1,7-2.3c2.3-1.4,4.1-3.4,5.5-5.7c1.7-2.6,2.4-5.7,2.1-8.8c-0.4-2.8-1.5-5.5-3.3-7.7l0.1-0.1
	c3.1,0.8,6.5,0.6,9.5-0.5c1.6-0.6,3-1.4,4.3-2.4c1.4-1.1,2.6-2.5,3.5-4c1.6-2.5,2.6-5.4,2.8-8.4c0.2-2.7-0.3-5.4-1.3-7.8
	c-1.1-2.6-2.6-4.9-4.5-6.9c-4.2-4.4-9.4-7.5-15.2-9.2c-2.7-0.8-5.5-1-8.3-0.8c-5.7,0.6-10.8,3.9-13.6,8.9
	C248.9,883.4,248.3,885,247.9,886.8L247.9,886.8L247.9,886.8z M253.6,910.4c2-0.5,4-0.2,5.7,0.9c1.8,1,3.1,2.7,3.5,4.7
	c0.4,1.9,0,3.8-1,5.5c-0.9,1.7-2.5,2.9-4.4,3.3c-1.9,0.4-4,0.1-5.7-1c-1.7-1-2.9-2.6-3.5-4.5c-0.6-1.9-0.3-3.9,0.8-5.5
	C250.1,912.1,251.7,910.9,253.6,910.4L253.6,910.4L253.6,910.4z M267.3,886c2.3-0.4,4.6,0,6.5,1.3c2,1.1,3.6,3,4.2,5.2
	c0.6,2.2,0.2,4.5-1,6.4c-1.1,2-3,3.4-5.2,4c-2.3,0.5-4.7,0.1-6.6-1.2c-2-1.1-3.5-3-4.1-5.3c-0.6-2.2-0.2-4.5,1-6.4
	C263.2,888,265.1,886.5,267.3,886L267.3,886L267.3,886z M184.8,873.8c-0.7,2.9-0.8,5.9-0.2,8.8c0.6,3,1.7,5.8,3.4,8.3
	c3.6,5.5,8.9,9.6,15,11.8c2.9,1,5.9,1.5,8.9,1.3c3-0.2,5.9-1,8.6-2.3c2.9-1.5,5.4-3.7,7.4-6.3c3.5-4.3,5.1-9.9,4.3-15.4
	c-0.4-2.6-1.2-5-2.6-7.3c-1.4-2.3-3.1-4.3-5.3-6c-0.6-0.5-1.2-0.9-1.9-1.2c-0.6-0.4-1.3-0.7-2-0.9l0.3-0.1l25.5-7.3l-14.1-11.1
	l-25.7,8.4c-3.3,1.1-6.6,2.5-9.6,4.1c-3,1.7-5.7,4-7.8,6.7C186.9,867.8,185.5,870.7,184.8,873.8L184.8,873.8z M207,870.6
	c2.7-0.3,5.3,0.6,7.3,2.3c2.2,1.5,3.6,3.9,3.9,6.6c0.2,2.6-0.6,5.2-2.2,7.2c-1.6,2.2-4,3.6-6.6,4c-2.7,0.3-5.4-0.5-7.4-2.3
	c-2.2-1.6-3.6-4-3.8-6.7c-0.2-2.6,0.6-5.1,2.3-7.1C202,872.4,204.4,871,207,870.6L207,870.6z M68.7,723.7l-11.2,6.4l25.1,43.6
	l11.2-6.4l-8.8-15.3l42.9-24.7l-7.5-13.1L77.5,739L68.7,723.7L68.7,723.7z M45,654.9l5.9,13.8l28.6-3.8l0.1,0.2l-22.4,18.3l5.7,13.4
	l28.6-3.6l0.1,0.2l-22.6,17.8l6.1,14.4l34.5-31.1l-5.7-13.4l-28.5,2.9l-0.1-0.2l21.8-18.6l-5.7-13.4L45,654.9L45,654.9z M23.1,636.8
	c-1.6,1.4-2.6,3.3-2.8,5.4c-0.1,1.1,0,2.2,0.3,3.3c0.3,1.1,0.8,2.1,1.6,2.9c0.7,0.8,1.5,1.5,2.4,2c0.9,0.5,1.9,0.9,2.9,1
	c1,0.1,2.1,0,3.1-0.3c2-0.6,3.7-2,4.7-3.9c1-1.9,1.2-4.2,0.6-6.3c-0.3-1.1-0.8-2-1.5-2.9c-1.3-1.7-3.2-2.8-5.3-3
	C26.9,634.8,24.8,635.4,23.1,636.8L23.1,636.8z M81.7,619.8l-42.1,12.5l4.1,13.9l42.1-12.5L81.7,619.8z M41.1,593l-10.5,2.4
	l2.3,10.1l-11.3,2.6l3.2,13.8l11.3-2.6l1.6,6.8l10.5-2.4l-1.6-6.9l18.1-4.2c2.1-0.5,4.2-1.2,6.1-2.2c1.7-0.9,3.1-2.1,4.2-3.6
	c1.1-1.6,1.8-3.5,2-5.4c0.2-2.5,0-5-0.6-7.5c-0.3-1.5-0.8-3-1.4-4.4c-0.5-1.2-1.1-2.4-1.8-3.5L63,588.6c0.4,0.6,0.7,1.2,1,1.8
	c0.3,0.7,0.5,1.4,0.7,2.2c0.5,2,0.3,3.5-0.5,4.5c-1.1,1.2-2.6,1.9-4.3,2.2L43.4,603C43.4,603,41.1,593,41.1,593z M36.2,562.7
	l-10.6,1.7l1.7,10.2l-11.4,1.9l2.3,14l11.4-1.9l1.1,6.9l10.6-1.7l-1.1-7l18.3-3c2.1-0.3,4.2-0.9,6.2-1.8c1.7-0.8,3.3-1.9,4.5-3.4
	c1.2-1.5,2-3.3,2.4-5.3c0.4-2.5,0.4-5-0.1-7.5c-0.2-1.5-0.6-3-1.1-4.5c-0.4-1.2-0.9-2.4-1.5-3.6l-10.4,1.9c0.4,0.6,0.6,1.2,0.8,1.9
	c0.2,0.7,0.4,1.4,0.5,2.2c0.3,2,0.1,3.5-0.8,4.5c-1.2,1.1-2.8,1.8-4.4,1.9l-16.6,2.7L36.2,562.7z M40.4,543.2
	c-1.1,0-2.2-0.2-3.3-0.7c-1.1-0.5-2-1.1-2.8-1.9c-0.8-0.9-1.5-1.9-2-3c-0.5-1.2-0.9-2.5-0.9-3.8c-0.2-2.9,0.5-5.1,2-6.6
	c1.5-1.5,3.6-2.5,5.7-2.6L40.4,543.2z M33.8,513.3c-2.7,1.2-5.1,2.9-7.2,5.1c-1.9,2.1-3.4,4.6-4.2,7.3c-0.9,2.9-1.2,6-1,9
	c0.2,3.2,1,6.3,2.3,9.2c1.3,2.7,3,5.1,5.2,7.1c2.2,2,4.9,3.5,7.7,4.5c3.2,1,6.5,1.4,9.8,1.2c3.4-0.2,6.7-1.1,9.7-2.6
	c2.7-1.4,5-3.3,6.9-5.7c1.8-2.4,3.2-5.1,3.9-8c0.8-3.1,1.1-6.3,0.9-9.4c-0.2-4.1-1.3-8-3.2-11.6c-1.8-3.2-4.3-5.8-7.5-7.6l-5.6,10.5
	c1.4,0.9,2.7,2.2,3.6,3.6c1,1.7,1.6,3.7,1.7,5.7c0.2,2.5-0.5,5-1.8,7.2c-0.6,1-1.5,1.9-2.4,2.6c-1,0.7-2.1,1.1-3.3,1.3l-2.2-31.7
	c-0.6,0-1.1,0-1.7,0l-1.8,0.1C40.3,511.1,36.9,511.9,33.8,513.3L33.8,513.3z M21.3,472.5c-0.1,0.4-0.2,0.9-0.3,1.4
	c-0.1,0.6-0.1,1.1-0.1,1.7c-0.1,2.5,0.6,5.1,2,7.2c1.3,2.1,3.2,3.7,5.4,4.9v0.2l-6.3-0.1l-0.3,13.9l43.8,1l0.3-14.5l-22.5-0.5
	c-1-0.1-2.1-0.3-3.1-0.6c-1.2-0.4-2.3-1-3.2-1.8c-1-0.9-1.9-2-2.5-3.2c-0.7-1.5-1-3.2-0.9-4.9c0-0.6,0.1-1.2,0.1-1.8
	c0.1-0.6,0.2-1.3,0.4-1.9L21.3,472.5L21.3,472.5z M108.6,300.2l-30.4-13l-10.1,23.7l11.2,4.8l4.7-10.9l10.5,4.5
	c0,1.5-0.2,3.1-0.6,4.6c-0.4,1.6-0.9,3.2-1.6,4.8c-1.1,2.6-2.6,4.9-4.6,6.9c-1.7,1.7-3.8,3.1-6.1,3.9c-2.3,0.8-4.7,1.1-7.2,0.9
	c-2.7-0.2-5.3-0.9-7.8-2c-2.5-1-4.7-2.5-6.6-4.3c-1.8-1.7-3.2-3.7-4.2-6c-0.9-2.2-1.4-4.6-1.4-6.9c0-2.5,0.5-5,1.5-7.3
	c1.1-2.6,2.7-5,4.7-6.9c1.8-1.7,3.8-2.9,6.1-3.7l-6.2-13c-3.7,1.7-6.9,4.1-9.6,7.1c-3.1,3.5-5.7,7.4-7.5,11.8
	c-1.8,4.2-2.9,8.6-3.1,13.1c-0.2,4.2,0.4,8.5,1.8,12.5c1.5,4,3.7,7.6,6.7,10.7c3.3,3.3,7.1,6,11.5,7.7c4.2,1.9,8.8,2.9,13.4,2.9
	c4.2,0,8.4-0.8,12.3-2.4c3.9-1.7,7.5-4.2,10.4-7.3c3.2-3.4,5.8-7.4,7.6-11.7c1.8-4.1,3.1-8.4,3.9-12.9
	C108.6,307.9,108.8,304,108.6,300.2L108.6,300.2L108.6,300.2z M71.1,251c-1-0.1-2.1,0-3.1,0.3c-1,0.3-1.9,0.8-2.7,1.5
	c-0.9,0.7-1.6,1.5-2.1,2.5c-0.6,1-0.9,2.1-1,3.2c-0.1,1.1,0,2.1,0.2,3.1c0.2,1,0.7,1.9,1.3,2.8c0.6,0.8,1.4,1.5,2.4,2
	c1.8,1,4,1.3,6.1,0.6c2.1-0.6,3.9-2.1,4.9-4c0.5-1,0.9-2,1-3.1c0.3-2.1-0.3-4.2-1.5-5.9C75.2,252.3,73.3,251.2,71.1,251L71.1,251z
	 M124.3,281l-38.4-21.3l-7,12.6l38.4,21.3L124.3,281z M115,233.2l-9.1-5.8l-5.6,8.7l-9.7-6.2l-7.6,12l9.7,6.2l-3.8,5.9l9.1,5.8
	l3.8-5.9l15.6,10c1.8,1.2,3.8,2.1,5.8,2.8c1.8,0.6,3.7,0.7,5.6,0.5c1.9-0.3,3.7-1.1,5.3-2.3c2-1.6,3.6-3.5,4.9-5.6
	c0.8-1.3,1.5-2.7,2.1-4.1c0.5-1.2,0.9-2.4,1.3-3.7l-9-5.5c-0.1,0.7-0.3,1.3-0.6,2c-0.3,0.7-0.7,1.4-1.1,2c-1.1,1.7-2.3,2.7-3.6,2.8
	c-1.6,0-3.2-0.5-4.6-1.5l-14.2-9.1L115,233.2L115,233.2z M172.1,212.8l-21.4-16.7c-1.7-1.4-3.6-2.5-5.7-3.4c-2-0.9-4.1-1.4-6.2-1.4
	c-2.2,0-4.3,0.4-6.3,1.4c-2.3,1.2-4.4,2.9-5.9,5c-1.8,2.1-2.9,4.7-3.2,7.5c-0.3,2.2,0,4.5,0.8,6.7l-0.1,0.1l-22.3-17.4L92.9,206
	l52.6,41l8.9-11.4L135.6,221c-1.9-1.4-3.3-3.4-4-5.7c-0.6-2.2,0-4.5,1.5-6.2c0.6-0.9,1.5-1.6,2.5-2c0.9-0.3,1.9-0.4,2.8-0.3
	c1,0.2,2,0.5,3,1c1,0.6,2,1.2,2.9,2l18.8,14.6L172.1,212.8L172.1,212.8z M208,175.8l-31.2-30.9l-10.2,10.3l16.9,16.7
	c1.7,1.6,2.9,3.7,3.3,6.1c0.4,2.2-0.4,4.6-2.1,6.1c-0.8,0.8-1.7,1.5-2.8,1.8c-0.9,0.2-1.9,0.2-2.9,0c-1-0.3-2-0.8-2.8-1.4
	c-1-0.7-1.9-1.5-2.7-2.3l-16.9-16.7l-10.2,10.3l19.3,19.1c1.6,1.6,3.3,2.9,5.3,4c1.8,1.1,3.9,1.8,6,2.1c2.1,0.3,4.3,0.1,6.4-0.6
	c2.4-0.9,4.6-2.3,6.4-4.2c1-1,1.9-2.2,2.6-3.5c0.7-1.2,1.2-2.5,1.5-3.8c0.3-1.2,0.5-2.5,0.5-3.7c0-1.2-0.2-2.3-0.6-3.5l0.1-0.1
	l4.3,4.3L208,175.8L208,175.8z M232.8,115.9c-2.4-1.5-5-2.6-7.8-3.2c-5.7-1.2-11.6,0.3-16.1,4c-2.3,1.7-4.1,3.9-5.3,6.5
	c-0.9,2-1.4,4.2-1.6,6.4l-0.1,0.1l-17-21.5l-11.3,9l41.4,52.3l10.4-8.3l-3.6-4.5l0.1-0.1c2.6,0.9,5.3,1,7.9,0.3
	c2.8-0.7,5.4-2,7.7-3.8c2.4-1.9,4.4-4.2,5.7-7c1.2-2.5,1.9-5.3,1.9-8.1c0.1-2.9-0.4-5.7-1.4-8.4c-1-2.8-2.5-5.4-4.4-7.8
	C237.5,119.6,235.3,117.5,232.8,115.9L232.8,115.9L232.8,115.9z M230.5,134.2c0.5,1.3,0.7,2.7,0.7,4.1c0,1.4-0.4,2.8-1,4
	c-0.7,1.4-1.7,2.6-2.9,3.6c-1.2,1-2.6,1.6-4.1,2c-1.4,0.3-2.8,0.3-4.2,0c-1.4-0.3-2.7-0.8-3.9-1.5c-2.4-1.5-4.3-3.8-5.1-6.5
	c-0.4-1.3-0.6-2.7-0.6-4.1c0.1-1.4,0.4-2.8,1-4.1c0.7-1.4,1.6-2.6,2.9-3.5c1.2-1,2.6-1.7,4.1-2c2.7-0.6,5.6-0.1,7.9,1.5
	c1.2,0.8,2.2,1.7,3.1,2.8C229.3,131.7,230,132.9,230.5,134.2L230.5,134.2L230.5,134.2z"/>
<polygon class="hitarea mail" points="415,7 434,77 524.1,59.1 615,74.7 684.2,97.4 771.3,148 846.3,220.2 919.5,343.7 912.3,367
	911.4,390.6 931.2,410.2 942.6,433.7 946.7,524.1 928.5,629.1 860.5,765.9 895.6,783.9 935.3,729.7 993,593 1005.1,595.6
	1007.9,554.8 990.8,508.2 988.8,441.7 973.8,328.4 971.9,305.3 923.9,212.3 898.3,178.5 770.5,94.8 677.6,23.9 529,7 "/>
<polygon class="hitarea github" points="184.8,108.3 225,112.7 239.4,121.9 245.1,138.1 237.5,153.2 172.1,212.8 134.1,264.7 96.4,336.2
	86,343.5 73.7,346 48.9,335.3 40.4,312.1 63.2,255.3 92.9,206 173.5,117.2 "/>
<polygon class="hitarea twitter" points="21,473.9 34.1,473.4 65.8,488.1 77,601.4 128,727.3 93.9,767.3 82.7,773.8 22.2,648.4 15.8,576.5 "/>
<polygon class="hitarea phone" points="232.1,846.1 324.8,903.4 462.8,939.3 548.6,940.4 653.4,914.9 777,850 796.4,858.3 811.3,878.6
	812.1,899.7 753.4,939.6 691,969.6 621.5,991.6 529,1005.4 466.5,1004.3 385.2,989.5 315.1,967.2 245.9,933.6 187.9,890.9
	188.9,865.3 206.4,854.4 "/>
        </g>
    </svg>
