<svg xmlns="https://www.w3.org/2000/svg" viewBox="0 0 211.1 142.7">
  <path fill="#ed1a3a" fill-rule="evenodd" d="M120 34.7L102.7 31l3.2 6c-9 4.7-15 10.4-13.7 22.5 3.4-8.2 8.8-12.3 17.9-14.5l3.2 6 6.7-16.3z" clip-rule="evenodd"/>
  <path fill-rule="evenodd" d="M136.9 24.7v80.2c0 8.9 9.2 8.9 9.2 8.9h39.6s9.2 0 9.2-8.9V24.7c0-8.9-9.2-8.9-9.2-8.9H146s-9.1 0-9.1 8.9zm32.4 82.4c0-1.8-1.5-3.3-3.5-3.3-1.9 0-3.5 1.5-3.5 3.3 0 1.8 1.5 3.3 3.5 3.3 1.9 0 3.5-1.5 3.5-3.3z" clip-rule="evenodd"/>
  <path fill="#fff" fill-rule="evenodd" d="M142.3 22.8h47.3v78h-47.3z" clip-rule="evenodd"/>
  <path fill-rule="evenodd" d="M14 85.3v39.6s0 9.2 8.9 9.2h80.2c8.9 0 8.9-9.2 8.9-9.2V85.3s0-9.2-8.9-9.2H22.9c-8.9 0-8.9 9.2-8.9 9.2zm94.7 19.8c0 1.9-1.5 3.5-3.3 3.5-1.8 0-3.3-1.5-3.3-3.5 0-1.9 1.5-3.5 3.3-3.5 1.8.1 3.3 1.6 3.3 3.5zM99 81.2v47.3H21V81.2h78z" clip-rule="evenodd" opacity=".24"/>
</svg>
